<svg width="24" height="24" viewBox="0 0 24 24" fill="none" xmlns="http://www.w3.org/2000/svg">
<path d="M17.1484 10C17.7007 10 18.1484 9.55228 18.1484 9C18.1484 8.44772 17.7007 8 17.1484 8C16.5962 8 16.1484 8.44772 16.1484 9C16.1484 9.55228 16.5962 10 17.1484 10Z" fill="white"/>
<path d="M17.1484 16C17.7007 16 18.1484 15.5523 18.1484 15C18.1484 14.4477 17.7007 14 17.1484 14C16.5962 14 16.1484 14.4477 16.1484 15C16.1484 15.5523 16.5962 16 17.1484 16Z" fill="white"/>
<path d="M19.75 13C20.3023 13 20.75 12.5523 20.75 12C20.75 11.4477 20.3023 11 19.75 11C19.1977 11 18.75 11.4477 18.75 12C18.75 12.5523 19.1977 13 19.75 13Z" fill="white"/>
<path d="M6.79883 10C7.35111 10 7.79883 9.55228 7.79883 9C7.79883 8.44772 7.35111 8 6.79883 8C6.24654 8 5.79883 8.44772 5.79883 9C5.79883 9.55228 6.24654 10 6.79883 10Z" fill="white"/>
<path d="M6.79883 16C7.35111 16 7.79883 15.5523 7.79883 15C7.79883 14.4477 7.35111 14 6.79883 14C6.24654 14 5.79883 14.4477 5.79883 15C5.79883 15.5523 6.24654 16 6.79883 16Z" fill="white"/>
<path d="M4.19922 13C4.7515 13 5.19922 12.5523 5.19922 12C5.19922 11.4477 4.7515 11 4.19922 11C3.64693 11 3.19922 11.4477 3.19922 12C3.19922 12.5523 3.64693 13 4.19922 13Z" fill="white"/>
<path d="M15.8984 6.20001C16.4507 6.20001 16.8984 5.7523 16.8984 5.20001C16.8984 4.64773 16.4507 4.20001 15.8984 4.20001C15.3462 4.20001 14.8984 4.64773 14.8984 5.20001C14.8984 5.7523 15.3462 6.20001 15.8984 6.20001Z" fill="white"/>
<path d="M8.09961 6.20001C8.65189 6.20001 9.09961 5.7523 9.09961 5.20001C9.09961 4.64773 8.65189 4.20001 8.09961 4.20001C7.54732 4.20001 7.09961 4.64773 7.09961 5.20001C7.09961 5.7523 7.54732 6.20001 8.09961 6.20001Z" fill="white"/>
<path d="M12.0488 7C12.6011 7 13.0488 6.55228 13.0488 6C13.0488 5.44772 12.6011 5 12.0488 5C11.4965 5 11.0488 5.44772 11.0488 6C11.0488 6.55228 11.4965 7 12.0488 7Z" fill="white"/>
<path d="M15.8984 20C16.4507 20 16.8984 19.5523 16.8984 19C16.8984 18.4477 16.4507 18 15.8984 18C15.3462 18 14.8984 18.4477 14.8984 19C14.8984 19.5523 15.3462 20 15.8984 20Z" fill="white"/>
<path d="M8.09961 20C8.65189 20 9.09961 19.5523 9.09961 19C9.09961 18.4477 8.65189 18 8.09961 18C7.54732 18 7.09961 18.4477 7.09961 19C7.09961 19.5523 7.54732 20 8.09961 20Z" fill="white"/>
<path d="M12.0488 19.2C12.6011 19.2 13.0488 18.7523 13.0488 18.2C13.0488 17.6477 12.6011 17.2 12.0488 17.2C11.4965 17.2 11.0488 17.6477 11.0488 18.2C11.0488 18.7523 11.4965 19.2 12.0488 19.2Z" fill="white"/>
<path d="M13.75 10.25C14.4404 10.25 15 9.69036 15 9C15 8.30964 14.4404 7.75 13.75 7.75C13.0596 7.75 12.5 8.30964 12.5 9C12.5 9.69036 13.0596 10.25 13.75 10.25Z" fill="white"/>
<path d="M10.25 10.25C10.9404 10.25 11.5 9.69036 11.5 9C11.5 8.30964 10.9404 7.75 10.25 7.75C9.55964 7.75 9 8.30964 9 9C9 9.69036 9.55964 10.25 10.25 10.25Z" fill="white"/>
<path d="M15.5 13.25C16.1904 13.25 16.75 12.6904 16.75 12C16.75 11.3096 16.1904 10.75 15.5 10.75C14.8096 10.75 14.25 11.3096 14.25 12C14.25 12.6904 14.8096 13.25 15.5 13.25Z" fill="white"/>
<path d="M8.5 13.25C9.19036 13.25 9.75 12.6904 9.75 12C9.75 11.3096 9.19036 10.75 8.5 10.75C7.80964 10.75 7.25 11.3096 7.25 12C7.25 12.6904 7.80964 13.25 8.5 13.25Z" fill="white"/>
<path d="M10.25 16.25C10.9404 16.25 11.5 15.6904 11.5 15C11.5 14.3096 10.9404 13.75 10.25 13.75C9.55964 13.75 9 14.3096 9 15C9 15.6904 9.55964 16.25 10.25 16.25Z" fill="white"/>
<path d="M13.75 16.25C14.4404 16.25 15 15.6904 15 15C15 14.3096 14.4404 13.75 13.75 13.75C13.0596 13.75 12.5 14.3096 12.5 15C12.5 15.6904 13.0596 16.25 13.75 16.25Z" fill="white"/>
<path d="M11.9991 3.33001C11.5091 3.33001 11.1191 2.94001 11.1191 2.45001C11.1191 1.96001 11.5091 1.57001 11.9991 1.57001C12.4891 1.57001 12.8792 1.96001 12.8792 2.45001C12.8792 2.94001 12.4891 3.33001 11.9991 3.33001Z" fill="white"/>
<path d="M17.2502 3.60001C16.8302 3.60001 16.4902 3.26001 16.4902 2.85001C16.4902 2.44001 16.8302 2.10001 17.2402 2.10001C17.6502 2.10001 18.0002 2.44001 18.0002 2.85001C18.0002 3.26001 17.6702 3.60001 17.2502 3.60001Z" fill="white"/>
<path d="M6.75 3.60001C6.34 3.60001 6 3.26001 6 2.85001C6 2.44001 6.33 2.10001 6.75 2.10001H6.76001C7.17001 2.10001 7.51001 2.44001 7.51001 2.85001C7.51001 3.26001 7.17 3.60001 6.75 3.60001Z" fill="white"/>
<path d="M11.9991 22.38C11.5091 22.38 11.1191 21.99 11.1191 21.5C11.1191 21.01 11.5091 20.62 11.9991 20.62C12.4891 20.62 12.8792 21.01 12.8792 21.5C12.8792 21.99 12.4891 22.38 11.9991 22.38Z" fill="white"/>
<path d="M17.2502 21.85C16.8302 21.85 16.4902 21.51 16.4902 21.1C16.4902 20.69 16.8302 20.35 17.2402 20.35C17.6502 20.35 18.0002 20.69 18.0002 21.1C18.0002 21.51 17.6702 21.85 17.2502 21.85Z" fill="white"/>
<path d="M6.75 21.85C6.34 21.85 6 21.51 6 21.1C6 20.69 6.33 20.35 6.75 20.35H6.76001C7.17001 20.35 7.51001 20.69 7.51001 21.1C7.51001 21.51 7.17 21.85 6.75 21.85Z" fill="white"/>
<path d="M1.5499 12.88C1.0699 12.88 0.669922 12.49 0.669922 12.01V12C0.669922 11.52 1.0599 11.12 1.5499 11.12C2.0399 11.12 2.4299 11.51 2.4299 12C2.4299 12.49 2.0299 12.88 1.5499 12.88Z" fill="white"/>
<path d="M3.75 17.75C3.34 17.75 3 17.42 3 17V16.99C3 16.58 3.34 16.24 3.75 16.24C4.16 16.24 4.5 16.58 4.5 16.99C4.5 17.4 4.16 17.75 3.75 17.75Z" fill="white"/>
<path d="M3.75 7.76001C3.34 7.76001 3 7.42001 3 7.01001C3 6.60001 3.34 6.26001 3.75 6.26001C4.16 6.26001 4.5 6.59001 4.5 7.00001V7.01001C4.5 7.42001 4.16 7.76001 3.75 7.76001Z" fill="white"/>
<path d="M22.4991 12.88C22.0191 12.88 21.6191 12.49 21.6191 12.01V12C21.6191 11.52 22.0091 11.12 22.4991 11.12C22.9891 11.12 23.3792 11.51 23.3792 12C23.3792 12.49 22.9791 12.88 22.4991 12.88Z" fill="white"/>
<path d="M20.3008 17.75C19.8908 17.75 19.5508 17.42 19.5508 17V16.99C19.5508 16.58 19.8908 16.24 20.3008 16.24C20.7108 16.24 21.0508 16.58 21.0508 16.99C21.0508 17.4 20.7108 17.75 20.3008 17.75Z" fill="white"/>
<path d="M20.3008 7.76001C19.8908 7.76001 19.5508 7.42001 19.5508 7.01001C19.5508 6.60001 19.8908 6.26001 20.3008 6.26001C20.7108 6.26001 21.0508 6.59001 21.0508 7.01001V7.02001C21.0508 7.42001 20.7108 7.76001 20.3008 7.76001Z" fill="white"/>
</svg>
