<svg width="24" height="24" viewBox="0 0 24 24" fill="none" xmlns="http://www.w3.org/2000/svg">
<path d="M6.90012 9.1L11.6701 6.98C11.8801 6.89 12.1201 6.89 12.3201 6.98L17.0901 9.1C17.5101 9.29 17.9001 8.78 17.6101 8.42L12.6101 2.31C12.2701 1.89 11.7101 1.89 11.3701 2.31L6.37009 8.42C6.09009 8.78 6.48012 9.29 6.90012 9.1Z" fill="white"/>
<path d="M6.90056 14.9L11.6805 17.02C11.8905 17.11 12.1305 17.11 12.3305 17.02L17.1105 14.9C17.5305 14.71 17.9205 15.22 17.6305 15.58L12.6305 21.69C12.2905 22.11 11.7305 22.11 11.3905 21.69L6.39055 15.58C6.09055 15.22 6.47056 14.71 6.90056 14.9Z" fill="white"/>
<path d="M11.7806 9.49L7.65055 11.55C7.28055 11.73 7.28055 12.26 7.65055 12.44L11.7806 14.5C11.9206 14.57 12.0905 14.57 12.2305 14.5L16.3605 12.44C16.7305 12.26 16.7305 11.73 16.3605 11.55L12.2305 9.49C12.0805 9.42 11.9206 9.42 11.7806 9.49Z" fill="white"/>
</svg>
