<svg width="24" height="24" viewBox="0 0 24 24" fill="none" xmlns="http://www.w3.org/2000/svg">
<path d="M21.49 7.80863V7.81V16.19C21.49 17.9106 20.9791 19.2238 20.0964 20.1064C19.2138 20.9891 17.9006 21.5 16.18 21.5H7.81C6.08945 21.5 4.77634 20.9891 3.89377 20.1054C3.01114 19.2217 2.5 17.9059 2.5 16.18V7.81C2.5 6.08944 3.01093 4.77618 3.89355 3.89355C4.77618 3.01093 6.08944 2.5 7.81 2.5H16.19C17.9107 2.5 19.2237 3.01097 20.105 3.89333C20.9861 4.77559 21.4947 6.08838 21.49 7.80863ZM17.1336 10.0536L17.1336 10.0536L17.1395 10.0475C17.6136 9.55706 17.6221 8.77495 17.1336 8.28645C16.6483 7.80118 15.8517 7.80118 15.3664 8.28645L10.58 13.0729L8.63355 11.1264C8.14829 10.6412 7.35171 10.6412 6.86645 11.1264C6.38118 11.6117 6.38118 12.4083 6.86645 12.8936L9.69645 15.7236C9.92914 15.9563 10.2459 16.09 10.58 16.09C10.9141 16.09 11.2309 15.9563 11.4636 15.7236L17.1336 10.0536Z" fill="#FE00C0" stroke="#FE00C0"/>
</svg>
