<svg width="209" height="63" viewBox="0 0 209 63" fill="none" xmlns="http://www.w3.org/2000/svg">
<path d="M127.888 52.8133C126.118 52.8133 124.745 52.3109 123.741 51.3059C122.738 50.301 122.236 48.9258 122.236 47.1539V39.7489H117.667V35.4911H122.236V30.625H126.937V35.4911H133.382V39.7489H126.937V47.1539C126.937 48.1059 127.413 48.582 128.363 48.582H133.091V52.8398H127.888V52.8133Z" fill="#00D54B"/>
<path d="M138.004 52.8134V35.4912H142.415V38.797H143.603L142.256 40.8069C142.256 38.9292 142.679 37.5275 143.55 36.6019C144.422 35.6499 145.663 35.1738 147.327 35.1738C149.229 35.1738 150.708 35.7556 151.765 36.8928C152.821 38.0565 153.349 39.6697 153.349 41.7589V43.187H148.331V42.0763C148.331 41.1242 148.067 40.4102 147.565 39.8812C147.063 39.3523 146.377 39.0879 145.505 39.0879C144.607 39.0879 143.92 39.3523 143.445 39.8812C142.969 40.4102 142.732 41.1507 142.732 42.0763V52.787H138.004V52.8134Z" fill="#00D54B"/>
<path d="M161.484 53.1309C159.741 53.1309 158.368 52.6549 157.338 51.7028C156.307 50.7508 155.806 49.4814 155.806 47.8682C155.806 46.1227 156.413 44.7739 157.602 43.8483C158.817 42.9227 160.533 42.4467 162.805 42.4467H166.397V41.1508C166.397 40.4632 166.159 39.9343 165.684 39.5376C165.208 39.1409 164.575 38.9293 163.782 38.9293C163.043 38.9293 162.435 39.088 161.96 39.4318C161.484 39.7756 161.194 40.2252 161.088 40.807H156.519C156.704 39.0616 157.47 37.6864 158.79 36.655C160.111 35.65 161.828 35.1211 163.941 35.1211C166.133 35.1211 167.876 35.65 169.17 36.7343C170.464 37.8186 171.098 39.2731 171.098 41.0979V52.7342H166.529V49.9838H165.763L166.555 48.8731C166.555 50.169 166.08 51.2004 165.156 51.9673C164.284 52.7607 163.043 53.1309 161.484 53.1309ZM163.227 49.6929C164.152 49.6929 164.918 49.4549 165.499 48.9524C166.106 48.45 166.397 47.8153 166.397 47.0219V45.1706H162.911C162.197 45.1706 161.616 45.3822 161.194 45.7789C160.745 46.202 160.533 46.731 160.533 47.3921C160.533 48.1062 160.771 48.6615 161.247 49.0847C161.748 49.4814 162.409 49.6929 163.227 49.6929Z" fill="#00D54B"/>
<path d="M180.792 53.1311C179.049 53.1311 177.649 52.5229 176.619 51.3063C175.562 50.0898 175.061 48.4501 175.061 46.3609V41.9444C175.061 39.8816 175.589 38.2419 176.619 37.0254C177.675 35.8089 179.049 35.1742 180.792 35.1742C182.218 35.1742 183.328 35.5973 184.146 36.4171C184.965 37.237 185.361 38.4006 185.361 39.908L184.252 38.7973H185.361L185.203 34.5395V29.832H189.931V52.8138H185.361V49.508H184.252L185.361 48.3972C185.361 49.8782 184.965 51.0419 184.146 51.8617C183.328 52.7344 182.218 53.1311 180.792 53.1311ZM182.482 49.0584C183.354 49.0584 184.014 48.8204 184.49 48.3179C184.965 47.8154 185.203 47.1278 185.203 46.2287V42.1295C185.203 41.2303 184.965 40.5427 184.49 40.0403C184.014 39.5378 183.328 39.2998 182.482 39.2998C181.611 39.2998 180.924 39.5378 180.449 40.0403C179.973 40.5427 179.736 41.2303 179.736 42.1295V46.2287C179.736 47.1278 179.973 47.8419 180.449 48.3179C180.924 48.7939 181.611 49.0584 182.482 49.0584Z" fill="#00D54B"/>
<path d="M201.473 53.1318C199.941 53.1318 198.594 52.8409 197.458 52.2591C196.323 51.6773 195.424 50.8839 194.817 49.8261C194.21 48.7947 193.893 47.5781 193.893 46.1765V42.0773C193.893 40.7021 194.21 39.4856 194.817 38.4542C195.424 37.4228 196.323 36.603 197.458 36.0212C198.594 35.4393 199.941 35.1484 201.473 35.1484C203.005 35.1484 204.325 35.4393 205.461 36.0212C206.57 36.603 207.442 37.3964 208.076 38.4542C208.683 39.4856 209 40.7021 209 42.0773V45.2244H198.409V46.1765C198.409 47.2608 198.673 48.1071 199.201 48.636C199.73 49.1914 200.522 49.4823 201.552 49.4823C202.292 49.4823 202.873 49.35 203.322 49.112C203.771 48.874 204.061 48.5038 204.22 48.0806H208.842C208.472 49.5881 207.601 50.8046 206.28 51.7302C204.933 52.6823 203.322 53.1318 201.473 53.1318ZM204.484 42.8443V42.0509C204.484 40.993 204.246 40.1732 203.744 39.5914C203.243 39.036 202.503 38.7451 201.473 38.7451C200.443 38.7451 199.677 39.036 199.175 39.6178C198.673 40.1997 198.409 41.0459 198.409 42.1038V42.5798L204.827 42.5269L204.484 42.8443Z" fill="#00D54B"/>
<path d="M114.656 53.3951C116.508 53.3951 118.01 51.8913 118.01 50.0364C118.01 48.1815 116.508 46.6777 114.656 46.6777C112.803 46.6777 111.301 48.1815 111.301 50.0364C111.301 51.8913 112.803 53.3951 114.656 53.3951Z" fill="#00D54B"/>
<path d="M22.5032 45.5138H8.05573V13.752H0V53.051H24.9596L22.5032 45.5138Z" fill="white"/>
<path d="M83.3837 34.2213V36.6544H74.7733V34.7767C74.7733 33.1635 74.3243 31.894 73.4526 30.9949C72.581 30.0957 71.3925 29.6461 69.9398 29.6461C68.4079 29.6461 67.2194 30.0957 66.427 30.9949C65.6082 31.894 65.212 33.137 65.212 34.7767V53.0774H57.1299V23.4577H64.6574V29.0907H64.7366C65.08 27.5569 65.7139 26.2875 66.5855 25.3089C68.0646 23.6957 70.2039 22.9023 73.0301 22.9023C76.3052 22.9023 78.8407 23.8809 80.6368 25.8643C82.4856 27.8478 83.3837 30.6246 83.3837 34.2213Z" fill="white"/>
<path d="M103.298 23.4316V50.9092C103.298 54.5588 102.215 57.4679 100.076 59.5836C97.9367 61.6993 94.9785 62.7571 91.2544 62.7571H85.2588V55.2199H90.6733C92.1524 55.2199 93.2617 54.8233 94.0541 54.0034C94.8464 53.21 95.2426 52.0729 95.2426 50.6448V30.9952H89.0357C88.666 28.0862 87.7151 25.5738 86.2625 23.4581H103.298V23.4316Z" fill="white"/>
<path d="M51.2924 23.4316L41.7312 53.0514H31.6153L23.8501 29.2762L27.3629 26.7374L31.3512 27.0548L35.2338 40.0927C35.5243 41.0977 35.8148 42.182 36.079 43.3721C36.3695 44.5621 36.5808 45.5142 36.7129 46.2282C36.8977 45.5142 37.109 44.5621 37.3732 43.3721C37.6373 42.182 37.9014 41.1241 38.1655 40.1456L41.7576 27.8482L42.7877 24.3837L43.0518 23.4581H51.2924V23.4316Z" fill="white"/>
<path d="M37.5319 24.3306L33.3588 24.0132L28.3668 23.643L26.4123 23.4843L24.4578 24.9124L20.7865 27.5835L17.4058 30.043L18.0397 28.3504L20.0998 23.0083L23.639 13.6992L31.5363 19.7554L36.1056 23.2463L37.5319 24.3306Z" fill="#00D54B"/>
<path d="M108.078 24.6478L93.2876 10.4991L100.683 0L122.869 0.819832L106.811 4.04627L117.719 9.83798L108.739 9.20327L112.595 22.0826L108.078 24.6478Z" fill="#00D54B"/>
</svg>
