<svg width="209" height="63" viewBox="0 0 209 63" fill="none" xmlns="http://www.w3.org/2000/svg">
<path d="M127.888 52.8129C126.118 52.8129 124.744 52.3104 123.741 51.3054C122.737 50.3005 122.235 48.9253 122.235 47.1534V39.7484H117.666V35.4906H122.235V30.6245H126.937V35.4906H133.381V39.7484H126.937V47.1534C126.937 48.1054 127.412 48.5815 128.363 48.5815H133.091V52.8393H127.888V52.8129Z" fill="#00D54B"/>
<path d="M138.004 52.8129V35.4907H142.415V38.7965H143.603L142.256 40.8064C142.256 38.9287 142.679 37.527 143.55 36.6014C144.422 35.6494 145.663 35.1733 147.327 35.1733C149.229 35.1733 150.708 35.7552 151.765 36.8923C152.821 38.056 153.349 39.6692 153.349 41.7584V43.1865H148.331V42.0758C148.331 41.1237 148.067 40.4097 147.565 39.8808C147.063 39.3518 146.377 39.0874 145.505 39.0874C144.607 39.0874 143.92 39.3518 143.445 39.8808C142.969 40.4097 142.732 41.1502 142.732 42.0758V52.7865H138.004V52.8129Z" fill="#00D54B"/>
<path d="M161.484 53.13C159.741 53.13 158.368 52.6539 157.338 51.7019C156.307 50.7498 155.806 49.4804 155.806 47.8672C155.806 46.1217 156.413 44.773 157.602 43.8474C158.817 42.9217 160.533 42.4457 162.805 42.4457H166.397V41.1498C166.397 40.4622 166.159 39.9333 165.684 39.5366C165.208 39.1399 164.575 38.9284 163.782 38.9284C163.043 38.9284 162.435 39.087 161.96 39.4308C161.484 39.7746 161.194 40.2242 161.088 40.806H156.519C156.704 39.0606 157.47 37.6854 158.79 36.654C160.111 35.649 161.828 35.1201 163.941 35.1201C166.133 35.1201 167.876 35.649 169.17 36.7333C170.464 37.8176 171.098 39.2722 171.098 41.097V52.7333H166.529V49.9829H165.763L166.555 48.8721C166.555 50.168 166.08 51.1994 165.156 51.9663C164.284 52.7597 163.043 53.13 161.484 53.13ZM163.227 49.692C164.152 49.692 164.918 49.4539 165.499 48.9515C166.106 48.449 166.397 47.8143 166.397 47.0209V45.1697H162.911C162.197 45.1697 161.616 45.3812 161.194 45.7779C160.745 46.2011 160.533 46.73 160.533 47.3911C160.533 48.1052 160.771 48.6606 161.247 49.0837C161.748 49.4804 162.409 49.692 163.227 49.692Z" fill="#00D54B"/>
<path d="M180.791 53.1301C179.048 53.1301 177.648 52.5219 176.618 51.3054C175.561 50.0888 175.06 48.4492 175.06 46.3599V41.9434C175.06 39.8806 175.588 38.2409 176.618 37.0244C177.674 35.8079 179.048 35.1732 180.791 35.1732C182.217 35.1732 183.327 35.5963 184.145 36.4162C184.964 37.236 185.36 38.3996 185.36 39.907L184.251 38.7963H185.36L185.202 34.5385V29.8311H189.93V52.8128H185.36V49.507H184.251L185.36 48.3963C185.36 49.8773 184.964 51.0409 184.145 51.8607C183.327 52.7334 182.217 53.1301 180.791 53.1301ZM182.481 49.0574C183.353 49.0574 184.013 48.8194 184.489 48.3169C184.964 47.8145 185.202 47.1269 185.202 46.2277V42.1285C185.202 41.2294 184.964 40.5418 184.489 40.0393C184.013 39.5368 183.327 39.2988 182.481 39.2988C181.61 39.2988 180.923 39.5368 180.448 40.0393C179.972 40.5418 179.735 41.2294 179.735 42.1285V46.2277C179.735 47.1269 179.972 47.8409 180.448 48.3169C180.923 48.793 181.61 49.0574 182.481 49.0574Z" fill="#00D54B"/>
<path d="M201.472 53.1304C199.94 53.1304 198.593 52.8395 197.457 52.2577C196.322 51.6758 195.424 50.8824 194.816 49.8246C194.209 48.7932 193.892 47.5767 193.892 46.175V42.0759C193.892 40.7007 194.209 39.4841 194.816 38.4527C195.424 37.4213 196.322 36.6015 197.457 36.0197C198.593 35.4379 199.94 35.147 201.472 35.147C203.004 35.147 204.324 35.4379 205.46 36.0197C206.569 36.6015 207.441 37.3949 208.075 38.4527C208.682 39.4841 208.999 40.7007 208.999 42.0759V45.223H198.408V46.175C198.408 47.2593 198.672 48.1056 199.2 48.6345C199.729 49.1899 200.521 49.4808 201.551 49.4808C202.291 49.4808 202.872 49.3486 203.321 49.1106C203.77 48.8725 204.06 48.5023 204.219 48.0792H208.841C208.471 49.5866 207.6 50.8031 206.279 51.7287C204.932 52.6808 203.321 53.1304 201.472 53.1304ZM204.483 42.8428V42.0494C204.483 40.9916 204.245 40.1717 203.743 39.5899C203.242 39.0346 202.502 38.7437 201.472 38.7437C200.442 38.7437 199.676 39.0346 199.174 39.6164C198.672 40.1982 198.408 41.0445 198.408 42.1023V42.5784L204.826 42.5255L204.483 42.8428Z" fill="#00D54B"/>
<path d="M114.655 53.3946C116.508 53.3946 118.009 51.8908 118.009 50.0359C118.009 48.181 116.508 46.6772 114.655 46.6772C112.803 46.6772 111.301 48.181 111.301 50.0359C111.301 51.8908 112.803 53.3946 114.655 53.3946Z" fill="#00D54B"/>
<path d="M22.5032 45.5138H8.05573V13.752H0V53.051H24.9596L22.5032 45.5138Z" fill="#343434"/>
<path d="M83.3837 34.2213V36.6544H74.7733V34.7767C74.7733 33.1635 74.3243 31.894 73.4526 30.9949C72.581 30.0957 71.3925 29.6461 69.9398 29.6461C68.4079 29.6461 67.2194 30.0957 66.427 30.9949C65.6082 31.894 65.212 33.137 65.212 34.7767V53.0774H57.1299V23.4577H64.6574V29.0907H64.7366C65.08 27.5569 65.7139 26.2875 66.5855 25.3089C68.0646 23.6957 70.2039 22.9023 73.0301 22.9023C76.3052 22.9023 78.8407 23.8809 80.6368 25.8643C82.4856 27.8478 83.3837 30.6246 83.3837 34.2213Z" fill="#343434"/>
<path d="M103.298 23.4316V50.9092C103.298 54.5588 102.215 57.4679 100.076 59.5836C97.9367 61.6993 94.9785 62.7571 91.2544 62.7571H85.2588V55.2199H90.6733C92.1524 55.2199 93.2617 54.8233 94.0541 54.0034C94.8464 53.21 95.2426 52.0729 95.2426 50.6448V30.9952H89.0357C88.666 28.0862 87.7151 25.5738 86.2625 23.4581H103.298V23.4316Z" fill="#343434"/>
<path d="M51.2929 23.4316L41.7317 53.0514H31.6158L23.8506 29.2762L27.3634 26.7374L31.3517 27.0548L35.2343 40.0927C35.5248 41.0977 35.8153 42.182 36.0795 43.3721C36.37 44.5621 36.5813 45.5142 36.7133 46.2282C36.8982 45.5142 37.1095 44.5621 37.3737 43.3721C37.6378 42.182 37.9019 41.1241 38.166 40.1456L41.7581 27.8482L42.7882 24.3837L43.0523 23.4581H51.2929V23.4316Z" fill="#343434"/>
<path d="M37.5324 24.3306L33.3592 24.0132L28.3673 23.643L26.4128 23.4843L24.4583 24.9124L20.787 27.5835L17.4062 30.043L18.0401 28.3504L20.1003 23.0083L23.6395 13.6992L31.5368 19.7554L36.1061 23.2463L37.5324 24.3306Z" fill="#00D54B"/>
<path d="M108.079 24.6478L93.2881 10.4991L100.684 0L122.87 0.819832L106.811 4.04627L117.719 9.83798L108.739 9.20327L112.595 22.0826L108.079 24.6478Z" fill="#00D54B"/>
</svg>
