<svg width="21" height="23" viewBox="0 0 21 23" fill="none" xmlns="http://www.w3.org/2000/svg">
<path d="M12.894 0.399199C12.7148 0.251182 12.5083 0.140557 12.2866 0.0737286C12.0648 0.00689991 11.8321 -0.0148054 11.602 0.009869C11.3718 0.0345434 11.1488 0.105107 10.9459 0.217476C10.7429 0.329845 10.564 0.481788 10.4195 0.664508L5.3515 7.08145H7.5915L11.7862 1.76819L13.1337 2.88072L9.75625 7.08145H12.0103L14.49 3.99679L17.4965 6.47832L16.975 7.08145H17.5C18.0219 7.0809 18.5409 7.15899 19.04 7.31315C19.2306 6.95168 19.2912 6.53453 19.2115 6.13293C19.1317 5.73132 18.9164 5.37016 18.6025 5.11109L12.894 0.399199ZM1.75 7.96582C1.75 7.73127 1.84219 7.50633 2.00628 7.34048C2.17038 7.17463 2.39294 7.08145 2.625 7.08145H3.6015L4.99275 5.31272H2.625C1.92881 5.31272 1.26113 5.59225 0.768845 6.0898C0.276562 6.58735 0 7.26217 0 7.96582V18.5782C0 19.7509 0.460936 20.8756 1.28141 21.7049C2.10188 22.5341 3.21468 23 4.375 23H17.5C18.4283 23 19.3185 22.6273 19.9749 21.9639C20.6313 21.3005 21 20.4007 21 19.4625V12.3876C21 11.4494 20.6313 10.5497 19.9749 9.88628C19.3185 9.22287 18.4283 8.85018 17.5 8.85018H2.625C2.39294 8.85018 2.17038 8.757 2.00628 8.59116C1.84219 8.4253 1.75 8.20036 1.75 7.96582ZM14.875 15.9251H16.625C16.8571 15.9251 17.0796 16.0183 17.2437 16.1841C17.4078 16.35 17.5 16.5749 17.5 16.8095C17.5 17.044 17.4078 17.2689 17.2437 17.4348C17.0796 17.6006 16.8571 17.6938 16.625 17.6938H14.875C14.6429 17.6938 14.4204 17.6006 14.2563 17.4348C14.0922 17.2689 14 17.044 14 16.8095C14 16.5749 14.0922 16.35 14.2563 16.1841C14.4204 16.0183 14.6429 15.9251 14.875 15.9251Z" fill="white"/>
</svg>
