<svg width="64" height="52" viewBox="0 0 64 52" fill="none" xmlns="http://www.w3.org/2000/svg">
<path d="M52.8 45.5H11.2C10.32 45.5 9.6 46.2313 9.6 47.125V50.375C9.6 51.2687 10.32 52 11.2 52H52.8C53.68 52 54.4 51.2687 54.4 50.375V47.125C54.4 46.2313 53.68 45.5 52.8 45.5ZM59.2 13C56.55 13 54.4 15.1836 54.4 17.875C54.4 18.5961 54.56 19.2664 54.84 19.8859L47.6 24.2937C46.06 25.2281 44.07 24.7 43.18 23.1156L35.03 8.63281C36.1 7.73906 36.8 6.39844 36.8 4.875C36.8 2.18359 34.65 0 32 0C29.35 0 27.2 2.18359 27.2 4.875C27.2 6.39844 27.9 7.73906 28.97 8.63281L20.82 23.1156C19.93 24.7 17.93 25.2281 16.4 24.2937L9.17 19.8859C9.44 19.2766 9.61 18.5961 9.61 17.875C9.61 15.1836 7.46 13 4.81 13C2.16 13 0 15.1836 0 17.875C0 20.5664 2.15 22.75 4.8 22.75C5.06 22.75 5.32 22.7094 5.57 22.6687L12.8 42.25H51.2L58.43 22.6687C58.68 22.7094 58.94 22.75 59.2 22.75C61.85 22.75 64 20.5664 64 17.875C64 15.1836 61.85 13 59.2 13Z" fill="#00D54B"/>
</svg>
