<svg width="116" height="116" viewBox="0 0 116 116" fill="none" xmlns="http://www.w3.org/2000/svg">
<path fill-rule="evenodd" clip-rule="evenodd" d="M57.7676 104.768C83.725 104.768 104.768 83.7252 104.768 57.7678C104.768 31.8104 83.725 10.7678 57.7676 10.7678C31.8102 10.7678 10.7676 31.8104 10.7676 57.7678C10.7676 83.7252 31.8102 104.768 57.7676 104.768ZM57.7676 109.768C86.4864 109.768 109.768 86.4866 109.768 57.7678C109.768 29.049 86.4864 5.76782 57.7676 5.76782C29.0488 5.76782 5.76758 29.049 5.76758 57.7678C5.76758 86.4866 29.0488 109.768 57.7676 109.768Z" fill="white"/>
<path fill-rule="evenodd" clip-rule="evenodd" d="M115.536 3.53553L3.53553 115.536L0 112L112 0L115.536 3.53553Z" fill="white"/>
</svg>
