<svg width="47" height="51" viewBox="0 0 47 51" fill="none" xmlns="http://www.w3.org/2000/svg">
<path d="M28.858 0.88518C28.4569 0.556968 27.9949 0.31167 27.4985 0.163485C27.0021 0.0152998 26.4814 -0.0328293 25.9663 0.0218834C25.4512 0.0765962 24.9521 0.233064 24.4979 0.48223C24.0436 0.731396 23.6432 1.06831 23.3198 1.47347L11.9772 15.7023H16.9905L26.3787 3.92078L29.3946 6.38769L21.8354 15.7023H26.8801L32.43 8.86245L39.1588 14.365L37.9917 15.7023H39.1667C40.3347 15.7011 41.4963 15.8743 42.6133 16.2161C43.04 15.4146 43.1757 14.4896 42.9971 13.5991C42.8185 12.7086 42.3368 11.9077 41.6342 11.3333L28.858 0.88518ZM3.91667 17.6633C3.91667 17.1432 4.12299 16.6445 4.49025 16.2767C4.85751 15.909 5.35562 15.7023 5.875 15.7023H8.0605L11.1743 11.7804H5.875C4.31685 11.7804 2.82252 12.4002 1.72075 13.5035C0.618972 14.6067 0 16.1031 0 17.6633V41.1951C0 43.7955 1.03162 46.2894 2.86791 48.1282C4.70421 49.967 7.19476 51 9.79167 51H39.1667C41.2442 51 43.2366 50.1736 44.7057 48.7026C46.1747 47.2315 47 45.2364 47 43.1561V27.4682C47 25.3879 46.1747 23.3928 44.7057 21.9217C43.2366 20.4507 41.2442 19.6243 39.1667 19.6243H5.875C5.35562 19.6243 4.85751 19.4177 4.49025 19.05C4.12299 18.6822 3.91667 18.1834 3.91667 17.6633ZM33.2917 35.3122H37.2083C37.7277 35.3122 38.2258 35.5188 38.5931 35.8865C38.9603 36.2543 39.1667 36.7531 39.1667 37.2731C39.1667 37.7932 38.9603 38.292 38.5931 38.6598C38.2258 39.0275 37.7277 39.2341 37.2083 39.2341H33.2917C32.7723 39.2341 32.2742 39.0275 31.9069 38.6598C31.5397 38.292 31.3333 37.7932 31.3333 37.2731C31.3333 36.7531 31.5397 36.2543 31.9069 35.8865C32.2742 35.5188 32.7723 35.3122 33.2917 35.3122Z" fill="#00AB55"/>
</svg>
