<?xml version="1.0" encoding="utf-8"?>
<!-- Generator: Adobe Illustrator 22.0.1, SVG Export Plug-In . SVG Version: 6.00 Build 0)  -->
<svg version="1.1" id="Layer_1" xmlns="http://www.w3.org/2000/svg" xmlns:xlink="http://www.w3.org/1999/xlink" x="0px" y="0px" viewBox="0 0 40.8 32.4" style="enable-background:new 0 0 40.8 32.4;" xml:space="preserve">
  <style type="text/css">
	.st0{fill:#6A798C;}
	.st1{fill:#40A548;}
</style>
  <title>Investing-trading-tools</title>
  <g id="Layer_2_1_">
    <g id="Layer_1-2">
      <rect x="8.8" y="7.6" class="st0" width="2.7" height="11.1" />
      <rect x="14.3" y="12.6" class="st0" width="2.7" height="6.1" />
      <path class="st1" d="M7.1,19.6V5.8H6.3v14.6H19c0-0.3,0.1-0.5,0.1-0.8H7.1z" />
      <path class="st1" d="M21.8,29.5h-1.6v-2.4c-0.6-1.1-1-2.4-1.2-3.7H2V2.1h32v8.9c0.7,0.2,1.4,0.6,2.1,0.9V3.3
			c0.1-1.7-1.2-3.2-2.9-3.3H2.9C1.2,0.1-0.1,1.6,0,3.3v18.9c-0.1,1.7,1.2,3.2,2.9,3.3h13v4h-4.4c-1.7,0-3.4,0.5-4.9,1.4
			c-1.1,0.8-0.7,1.4,0.9,1.4h18C24.1,31.6,22.8,30.7,21.8,29.5z" />
      <path class="st0" d="M25.2,11.7c0.8-0.4,1.7-0.8,2.7-1V7.3h-2.7V11.7z" />
      <path class="st0" d="M19.8,17.6c0.6-1.5,1.5-2.8,2.7-3.9v-3.1h-2.7V17.6z" />
      <path class="st0" d="M30.4,32.4c-5.8,0-10.4-4.7-10.4-10.4s4.7-10.4,10.4-10.4s10.4,4.7,10.4,10.4C40.8,27.7,36.1,32.4,30.4,32.4z
			 M30.4,13.5c-4.7,0-8.4,3.8-8.4,8.4s3.8,8.4,8.4,8.4s8.4-3.8,8.4-8.4l0,0C38.8,17.3,35,13.5,30.4,13.5z" />
      <path class="st0" d="M25,25.4c-0.3,0.5-0.3,1.2,0.2,1.6c0.2,0.2,0.6,0.4,0.9,0.5c0.3,0,0.5-0.1,0.7-0.3l3.4-3.4l-1.8-1.8L25,25.4z
			" />
      <path class="st0" d="M33.5,19.4l1.8-0.6l0.5-1.6l-0.7-0.7L33.3,17l-0.5,1.6L31,20.4l0.7,0.7L33.5,19.4z" />
      <path class="st1" d="M33.9,23.2h-0.1c-0.2,0-0.5,0-0.7,0.1l-4.2-4.2c0.1-0.2,0.1-0.5,0.1-0.7v-0.1c-0.1-1.1-0.9-1.9-2-1.9
			c-0.3,0-0.6,0.1-0.9,0.2l1.3,1.4c0.1,0.1,0.1,0.2,0.1,0.2c0.1,0.2,0,0.5-0.1,0.7c-0.1,0.1-0.3,0.2-0.5,0.2c-0.1,0-0.2,0-0.2,0
			c-0.1,0-0.2-0.1-0.2-0.1l-1.4-1.4c-0.5,1-0.1,2.2,0.9,2.7c0.3,0.1,0.5,0.2,0.8,0.2h0.1c0.2,0,0.5,0,0.7-0.1l4.2,4.2
			c-0.1,0.2-0.1,0.5-0.1,0.7v0.1c0.1,1.1,0.9,1.9,2,1.9c0.3,0,0.6-0.1,0.9-0.2l-1.3-1.4c-0.1-0.1-0.1-0.2-0.2-0.2
			c-0.1-0.3,0-0.5,0.2-0.7c0.1-0.1,0.3-0.2,0.5-0.2c0.2,0,0.3,0.1,0.5,0.2l1.4,1.4c0.1-0.3,0.2-0.6,0.2-0.9
			C35.7,24.2,34.9,23.3,33.9,23.2L33.9,23.2z" />
    </g>
  </g>
</svg>