<svg width="51" height="51" viewBox="0 0 51 51" fill="none" xmlns="http://www.w3.org/2000/svg">
<path fill-rule="evenodd" clip-rule="evenodd" d="M34.5036 6.96584C26.3377 3.73475 16.4276 5.57722 10.6693 11.8511L10.6688 11.8516C7.83381 14.9389 6.05574 18.8322 5.58776 22.9773C5.11978 27.1223 5.98576 31.3078 8.06237 34.9376C10.139 38.5675 13.3204 41.4568 17.1536 43.194C20.9868 44.9313 25.2763 45.428 29.4115 44.6134L29.4122 44.6132C37.7323 42.9765 43.9333 35.535 45.5886 27.3481C45.8845 25.8845 47.3238 24.9354 48.8033 25.2281C50.2828 25.5208 51.2423 26.9445 50.9464 28.4081C48.9591 38.2376 41.4273 47.7604 30.4779 49.9144C25.2152 50.9509 19.7561 50.3187 14.8777 48.1078C9.99909 45.8967 5.95004 42.2195 3.30708 37.5997C0.664109 32.9798 -0.438037 27.6529 0.157572 22.3774C0.753154 17.1021 3.01598 12.1471 6.62388 8.21798M6.62434 8.21748C14.0815 0.0930605 26.4859 -2.02793 36.5329 1.94748C37.9338 2.5018 38.6152 4.07455 38.0549 5.46034C37.4945 6.84612 35.9046 7.52016 34.5036 6.96584" fill="#00D54B"/>
<path fill-rule="evenodd" clip-rule="evenodd" d="M49.5312 7.91624C50.627 8.92767 50.6953 10.6358 49.6839 11.7316L28.0839 35.1316C27.5855 35.6715 26.8885 35.985 26.1539 35.9997C25.4192 36.0143 24.7103 35.729 24.1907 35.2094L15.1907 26.2094C14.1363 25.155 14.1363 23.4454 15.1907 22.391C16.2451 21.3366 17.9547 21.3366 19.0091 22.391L26.022 29.4039L45.7159 8.06885C46.7273 6.97314 48.4355 6.90481 49.5312 7.91624Z" fill="#00D54B"/>
<path fill-rule="evenodd" clip-rule="evenodd" d="M34.5036 6.96584C26.3377 3.73475 16.4276 5.57722 10.6693 11.8511L10.6688 11.8516C7.83381 14.9389 6.05574 18.8322 5.58776 22.9773C5.11978 27.1223 5.98576 31.3078 8.06237 34.9376C10.139 38.5675 13.3204 41.4568 17.1536 43.194C20.9868 44.9313 25.2763 45.428 29.4115 44.6134L29.4122 44.6132C37.7323 42.9765 43.9333 35.535 45.5886 27.3481C45.8845 25.8845 47.3238 24.9354 48.8033 25.2281C50.2828 25.5208 51.2423 26.9445 50.9464 28.4081C48.9591 38.2376 41.4273 47.7604 30.4779 49.9144C25.2152 50.9509 19.7561 50.3187 14.8777 48.1078C9.99909 45.8967 5.95004 42.2195 3.30708 37.5997C0.664109 32.9798 -0.438037 27.6529 0.157572 22.3774C0.753154 17.1021 3.01598 12.1471 6.62388 8.21798M6.62434 8.21748C14.0815 0.0930605 26.4859 -2.02793 36.5329 1.94748C37.9338 2.5018 38.6152 4.07455 38.0549 5.46034C37.4945 6.84612 35.9046 7.52016 34.5036 6.96584" fill="#00D54B"/>
<path fill-rule="evenodd" clip-rule="evenodd" d="M49.5312 7.91624C50.627 8.92767 50.6953 10.6358 49.6839 11.7316L28.0839 35.1316C27.5855 35.6715 26.8885 35.985 26.1539 35.9997C25.4192 36.0143 24.7103 35.729 24.1907 35.2094L15.1907 26.2094C14.1363 25.155 14.1363 23.4454 15.1907 22.391C16.2451 21.3366 17.9547 21.3366 19.0091 22.391L26.022 29.4039L45.7159 8.06885C46.7273 6.97314 48.4355 6.90481 49.5312 7.91624Z" fill="#00D54B"/>
</svg>
