<svg width="34" height="34" viewBox="0 0 34 34" fill="none" xmlns="http://www.w3.org/2000/svg">
<circle cx="17" cy="17" r="17" fill="#F2F2F2"/>
<path d="M21.5 23.2222H23.3V16.1111H17.9V23.2222H19.7V17.8889H21.5V23.2222ZM8.9 23.2222V9.88889C8.9 9.65314 8.99482 9.42705 9.1636 9.26035C9.33239 9.09365 9.56131 9 9.8 9H22.4C22.6387 9 22.8676 9.09365 23.0364 9.26035C23.2052 9.42705 23.3 9.65314 23.3 9.88889V14.3333H25.1V23.2222H26V25H8V23.2222H8.9ZM12.5 16.1111V17.8889H14.3V16.1111H12.5ZM12.5 19.6667V21.4444H14.3V19.6667H12.5ZM12.5 12.5556V14.3333H14.3V12.5556H12.5Z" fill="black"/>
</svg>
