<svg width="34" height="34" viewBox="0 0 34 34" fill="none" xmlns="http://www.w3.org/2000/svg">
<circle cx="17" cy="17" r="17" fill="#F2F2F2"/>
<path d="M16.3841 20.2744C17.4951 20.2704 19.9241 20.2614 19.8961 18.7164C19.8691 17.1364 17.5361 17.2314 16.3991 17.2784C16.2721 17.2834 16.1591 17.2884 16.0671 17.2894L16.1191 20.2764C16.1941 20.2744 16.2841 20.2744 16.3841 20.2744V20.2744ZM16.2661 15.9214C17.1931 15.9204 19.2161 15.9184 19.1921 14.5134C19.1661 13.0764 17.2231 13.1614 16.2741 13.2034C16.1671 13.2084 16.0741 13.2124 15.9961 13.2134L16.0431 15.9224L16.2661 15.9214Z" fill="black"/>
<path fill-rule="evenodd" clip-rule="evenodd" d="M14.0952 28.6405C20.5252 30.2435 27.0372 26.3305 28.6402 19.9025C30.2432 13.4735 26.3292 6.96151 19.8992 5.35951C13.4732 3.75551 6.96119 7.66951 5.35919 14.0995C3.75619 20.5275 7.66919 27.0395 14.0962 28.6415L14.0952 28.6405ZM18.3772 11.6205C20.1312 11.7445 21.5272 12.2585 21.7102 13.8625C21.8462 15.0365 21.3662 15.7515 20.5872 16.1655C21.8872 16.4535 22.7122 17.2085 22.5822 18.9365C22.4212 21.0815 20.8342 21.6845 18.5562 21.8545L18.5942 24.1045L17.2382 24.1295L17.1992 21.9095C16.8482 21.9155 16.4882 21.9195 16.1152 21.9175L16.1552 24.1475L14.7992 24.1715L14.7592 21.9175L14.3762 21.9205C14.1822 21.9215 13.9862 21.9225 13.7902 21.9265L12.0242 21.9565L12.2652 20.3325C12.2652 20.3325 13.2692 20.3305 13.2512 20.3155C13.6352 20.3075 13.7322 20.0305 13.7532 19.8565L13.6922 16.2995L13.7892 16.2975H13.8352C13.7874 16.292 13.7393 16.2897 13.6912 16.2905L13.6472 13.7505C13.5902 13.4765 13.4062 13.1605 12.8572 13.1705C12.8722 13.1505 11.8712 13.1875 11.8712 13.1875L11.8452 11.7395L13.7172 11.7075V11.7145C13.9982 11.7095 14.2872 11.6995 14.5802 11.6885L14.5422 9.45951L15.8982 9.43651L15.9362 11.6205C16.2982 11.6075 16.6622 11.5935 17.0192 11.5875L16.9812 9.41751L18.3382 9.39351L18.3772 11.6225V11.6205Z" fill="black"/>
</svg>
