<svg width="34" height="34" viewBox="0 0 34 34" fill="none" xmlns="http://www.w3.org/2000/svg">
<circle cx="17" cy="17" r="17" fill="#F2F2F2"/>
<path d="M17 5C10.3732 5 5 10.3732 5 17C5 23.6268 10.3732 29 17 29C23.6268 29 29 23.6268 29 17C29 10.3732 23.6268 5 17 5ZM18.7009 15.0661C18.8188 15.0661 18.9152 15.1625 18.9152 15.2804V16.0089C18.9152 16.1268 18.8188 16.2232 18.7009 16.2232H15.058C15.05 16.3411 15.05 16.467 15.05 16.5929V17.5571H18.6982C18.8161 17.5571 18.9125 17.6536 18.9125 17.7714V18.5C18.9125 18.6179 18.8161 18.7143 18.6982 18.7143H15.2027C15.6125 20.375 16.8446 21.3554 18.6795 21.3554C19.2125 21.3554 19.6732 21.3232 20.067 21.2455C20.1982 21.2188 20.3214 21.3205 20.3214 21.4545V22.6009C20.3214 22.7027 20.2491 22.7884 20.15 22.8098C19.7241 22.9009 19.2312 22.9464 18.6687 22.9464C15.7277 22.9464 13.767 21.3714 13.3063 18.7143H12.5C12.3821 18.7143 12.2857 18.6179 12.2857 18.5V17.7714C12.2857 17.6536 12.3821 17.5571 12.5 17.5571H13.1991V16.5687C13.1991 16.4509 13.1991 16.333 13.2071 16.2259H12.5C12.3821 16.2259 12.2857 16.1295 12.2857 16.0116V15.283C12.2857 15.1652 12.3821 15.0687 12.5 15.0687H13.3491C13.8768 12.5455 15.8134 11.0536 18.6687 11.0536C19.2286 11.0536 19.7241 11.1045 20.15 11.1982C20.2491 11.2196 20.3188 11.3054 20.3188 11.4071V12.5536H20.3214C20.3214 12.6902 20.1982 12.7893 20.0643 12.7625C19.6705 12.6848 19.2125 12.6446 18.6795 12.6446C16.9277 12.6446 15.7223 13.542 15.2616 15.0661H18.7009V15.0661Z" fill="black"/>
</svg>
