<svg width="34" height="34" viewBox="0 0 34 34" fill="none" xmlns="http://www.w3.org/2000/svg">
<circle cx="17" cy="17" r="17" fill="#F2F2F2"/>
<path d="M25.631 12.9998L22.4829 10L21.5926 10.8483L23.4815 12.6482V15.3996C23.4818 15.7178 23.6146 16.0228 23.8507 16.2478C24.0868 16.4727 24.4069 16.5993 24.7407 16.5996V22.8992C24.7407 23.1378 24.6412 23.3667 24.4641 23.5355C24.287 23.7043 24.0468 23.7991 23.7963 23.7991C23.5458 23.7991 23.3056 23.7043 23.1285 23.5355C22.9514 23.3667 22.8519 23.1378 22.8519 22.8992V17.7995C22.8519 17.6404 22.7855 17.4878 22.6674 17.3753C22.5494 17.2627 22.3892 17.1995 22.2222 17.1995H19.7037V11.1999C19.7037 11.0408 19.6374 10.8882 19.5193 10.7757C19.4012 10.6632 19.2411 10.6 19.0741 10.6H10.8889C10.7219 10.6 10.5618 10.6632 10.4437 10.7757C10.3256 10.8882 10.2593 11.0408 10.2593 11.1999V23.7991H9V24.999H20.963V23.7991H19.7037V18.3995H21.5926V22.8392C21.5852 23.3282 21.7539 23.805 22.0707 24.1898C22.3875 24.5747 22.8333 24.8444 23.3335 24.954C23.655 25.0191 23.9876 25.015 24.3071 24.942C24.6267 24.869 24.9251 24.729 25.1806 24.5321C25.4362 24.3352 25.6423 24.0864 25.7841 23.8039C25.9258 23.5214 25.9996 23.2123 26 22.8992V13.8487C26 13.6911 25.9675 13.535 25.9042 13.3893C25.8409 13.2436 25.7481 13.1113 25.631 12.9998V12.9998ZM17.1852 15.3996H12.7778V14.1997H17.1852V15.3996Z" fill="black"/>
</svg>
