<svg width="34" height="34" viewBox="0 0 34 34" fill="none" xmlns="http://www.w3.org/2000/svg">
<circle cx="17" cy="17" r="17" fill="#F2F2F2"/>
<path d="M25 18C25.55 18 26 17.55 26 17C26 16.45 25.55 16 25 16H24V10H25C25.55 10 26 9.55 26 9C26 8.45 25.55 8 25 8H9C8.45 8 8 8.45 8 9C8 9.55 8.45 10 9 10H10V16H9C8.45 16 8 16.45 8 17C8 17.55 8.45 18 9 18H10V24H9C8.45 24 8 24.45 8 25C8 25.55 8.45 26 9 26H25C25.55 26 26 25.55 26 25C26 24.45 25.55 24 25 24H24V18H25ZM17 21C15.34 21 14 19.68 14 18.05C14 16.75 14.52 16.38 17 13.5C19.47 16.36 20 16.74 20 18.05C20 19.68 18.66 21 17 21Z" fill="black"/>
</svg>
