<svg width="399" height="265" viewBox="0 0 399 265" fill="none" xmlns="http://www.w3.org/2000/svg">
<path fill-rule="evenodd" clip-rule="evenodd" d="M62.9297 264.821V0H65.9297V264.821H62.9297Z" fill="#7B7B7B"/>
<path fill-rule="evenodd" clip-rule="evenodd" d="M398.5 230.555H0V227.555H398.5V230.555Z" fill="#7B7B7B"/>
<path fill-rule="evenodd" clip-rule="evenodd" d="M21.5387 231.65C21.5356 231.65 21.5333 231.65 21.8148 228.663C21.9832 226.877 22.0507 226.159 22.0778 225.87C22.096 225.676 22.096 225.676 22.0962 225.676L22.1012 225.677L22.1267 225.679L22.2392 225.689C22.3414 225.698 22.4978 225.711 22.7071 225.728C23.1259 225.761 23.7566 225.807 24.5896 225.86C26.2557 225.965 28.7311 226.094 31.9391 226.186C38.3556 226.372 47.701 226.412 59.3636 225.827C82.6927 224.657 115.27 220.987 152.212 210.986C226.078 190.989 317.35 145.702 387.152 44.4629L392.092 47.8687C321.301 150.541 228.67 196.503 153.78 216.777C116.345 226.912 83.3313 230.632 59.6642 231.819C47.8286 232.413 38.3245 232.373 31.766 232.184C28.4866 232.089 25.943 231.957 24.2122 231.848C23.3467 231.793 22.6844 231.745 22.2347 231.709C22.0099 231.691 21.8382 231.677 21.7209 231.667L21.5859 231.655L21.5493 231.651L21.5387 231.65Z" fill="#00D54B"/>
<path d="M89.7727 15H88.3636C88.2803 14.5947 88.1345 14.2386 87.9261 13.9318C87.7216 13.625 87.4716 13.3674 87.1761 13.1591C86.8845 12.947 86.5606 12.7879 86.2045 12.6818C85.8485 12.5758 85.4773 12.5227 85.0909 12.5227C84.3864 12.5227 83.7481 12.7008 83.1761 13.0568C82.608 13.4129 82.1553 13.9375 81.8182 14.6307C81.4848 15.3239 81.3182 16.1742 81.3182 17.1818C81.3182 18.1894 81.4848 19.0398 81.8182 19.733C82.1553 20.4261 82.608 20.9508 83.1761 21.3068C83.7481 21.6629 84.3864 21.8409 85.0909 21.8409C85.4773 21.8409 85.8485 21.7879 86.2045 21.6818C86.5606 21.5758 86.8845 21.4186 87.1761 21.2102C87.4716 20.9981 87.7216 20.7386 87.9261 20.4318C88.1345 20.1212 88.2803 19.7652 88.3636 19.3636H89.7727C89.6667 19.9583 89.4735 20.4905 89.1932 20.9602C88.9129 21.4299 88.5644 21.8295 88.1477 22.1591C87.7311 22.4848 87.2633 22.733 86.7443 22.9034C86.2292 23.0739 85.678 23.1591 85.0909 23.1591C84.0985 23.1591 83.2159 22.9167 82.4432 22.4318C81.6705 21.947 81.0625 21.2576 80.6193 20.3636C80.1761 19.4697 79.9545 18.4091 79.9545 17.1818C79.9545 15.9545 80.1761 14.8939 80.6193 14C81.0625 13.1061 81.6705 12.4167 82.4432 11.9318C83.2159 11.447 84.0985 11.2045 85.0909 11.2045C85.678 11.2045 86.2292 11.2898 86.7443 11.4602C87.2633 11.6307 87.7311 11.8807 88.1477 12.2102C88.5644 12.536 88.9129 12.9337 89.1932 13.4034C89.4735 13.8693 89.6667 14.4015 89.7727 15ZM97.3679 19.4318V14.2727H98.7088V23H97.3679V21.5227H97.277C97.0724 21.9659 96.7543 22.3428 96.3224 22.6534C95.8906 22.9602 95.3452 23.1136 94.6861 23.1136C94.1406 23.1136 93.6558 22.9943 93.2315 22.7557C92.8073 22.5133 92.474 22.1496 92.2315 21.6648C91.9891 21.1761 91.8679 20.5606 91.8679 19.8182V14.2727H93.2088V19.7273C93.2088 20.3636 93.3868 20.8712 93.7429 21.25C94.1027 21.6288 94.5611 21.8182 95.1179 21.8182C95.4512 21.8182 95.7902 21.733 96.1349 21.5625C96.4834 21.392 96.7751 21.1307 97.0099 20.7784C97.2486 20.4261 97.3679 19.9773 97.3679 19.4318ZM101.165 23V14.2727H102.46V15.5909H102.551C102.71 15.1591 102.998 14.8087 103.415 14.5398C103.831 14.2708 104.301 14.1364 104.824 14.1364C104.922 14.1364 105.045 14.1383 105.193 14.142C105.341 14.1458 105.453 14.1515 105.528 14.1591V15.5227C105.483 15.5114 105.379 15.4943 105.216 15.4716C105.057 15.4451 104.888 15.4318 104.71 15.4318C104.286 15.4318 103.907 15.5208 103.574 15.6989C103.244 15.8731 102.983 16.1155 102.79 16.4261C102.6 16.733 102.506 17.0833 102.506 17.4773V23H101.165ZM107.118 23V14.2727H108.413V15.5909H108.504C108.663 15.1591 108.951 14.8087 109.368 14.5398C109.785 14.2708 110.254 14.1364 110.777 14.1364C110.875 14.1364 110.999 14.1383 111.146 14.142C111.294 14.1458 111.406 14.1515 111.482 14.1591V15.5227C111.436 15.5114 111.332 15.4943 111.169 15.4716C111.01 15.4451 110.841 15.4318 110.663 15.4318C110.239 15.4318 109.86 15.5208 109.527 15.6989C109.197 15.8731 108.936 16.1155 108.743 16.4261C108.554 16.733 108.459 17.0833 108.459 17.4773V23H107.118ZM116.464 23.1818C115.624 23.1818 114.898 22.9962 114.288 22.625C113.682 22.25 113.214 21.7273 112.885 21.0568C112.559 20.3826 112.396 19.5985 112.396 18.7045C112.396 17.8106 112.559 17.0227 112.885 16.3409C113.214 15.6553 113.673 15.1212 114.26 14.7386C114.851 14.3523 115.54 14.1591 116.328 14.1591C116.783 14.1591 117.232 14.2348 117.675 14.3864C118.118 14.5379 118.521 14.7841 118.885 15.125C119.249 15.4621 119.538 15.9091 119.754 16.4659C119.97 17.0227 120.078 17.7083 120.078 18.5227V19.0909H113.351V17.9318H118.714C118.714 17.4394 118.616 17 118.419 16.6136C118.226 16.2273 117.949 15.9223 117.589 15.6989C117.233 15.4754 116.813 15.3636 116.328 15.3636C115.794 15.3636 115.332 15.4962 114.942 15.7614C114.555 16.0227 114.258 16.3636 114.05 16.7841C113.841 17.2045 113.737 17.6553 113.737 18.1364V18.9091C113.737 19.5682 113.851 20.1269 114.078 20.5852C114.309 21.0398 114.629 21.3864 115.038 21.625C115.447 21.8598 115.923 21.9773 116.464 21.9773C116.817 21.9773 117.135 21.928 117.419 21.8295C117.707 21.7273 117.955 21.5758 118.163 21.375C118.372 21.1705 118.533 20.9167 118.646 20.6136L119.942 20.9773C119.805 21.4167 119.576 21.803 119.254 22.1364C118.932 22.4659 118.535 22.7235 118.061 22.9091C117.588 23.0909 117.055 23.1818 116.464 23.1818ZM123.459 17.75V23H122.118V14.2727H123.413V15.6364H123.527C123.732 15.1932 124.042 14.8371 124.459 14.5682C124.875 14.2955 125.413 14.1591 126.072 14.1591C126.663 14.1591 127.18 14.2803 127.624 14.5227C128.067 14.7614 128.411 15.125 128.658 15.6136C128.904 16.0985 129.027 16.7121 129.027 17.4545V23H127.686V17.5455C127.686 16.8598 127.508 16.3258 127.152 15.9432C126.796 15.5568 126.307 15.3636 125.686 15.3636C125.258 15.3636 124.875 15.4564 124.538 15.642C124.205 15.8277 123.942 16.0985 123.749 16.4545C123.555 16.8106 123.459 17.2424 123.459 17.75ZM135.273 14.2727V15.4091H130.75V14.2727H135.273ZM132.068 12.1818H133.409V20.5C133.409 20.8788 133.464 21.1629 133.574 21.3523C133.688 21.5379 133.831 21.6629 134.006 21.7273C134.184 21.7879 134.371 21.8182 134.568 21.8182C134.716 21.8182 134.837 21.8106 134.932 21.7955C135.027 21.7765 135.102 21.7614 135.159 21.75L135.432 22.9545C135.341 22.9886 135.214 23.0227 135.051 23.0568C134.888 23.0947 134.682 23.1136 134.432 23.1136C134.053 23.1136 133.682 23.0322 133.318 22.8693C132.958 22.7064 132.659 22.4583 132.42 22.125C132.186 21.7917 132.068 21.3712 132.068 20.8636V12.1818ZM141.972 23V11.3636H145.903C146.816 11.3636 147.563 11.5284 148.142 11.858C148.725 12.1837 149.157 12.625 149.438 13.1818C149.718 13.7386 149.858 14.3598 149.858 15.0455C149.858 15.7311 149.718 16.3542 149.438 16.9148C149.161 17.4754 148.733 17.9223 148.153 18.2557C147.574 18.5852 146.831 18.75 145.926 18.75H143.108V17.5H145.881C146.506 17.5 147.008 17.392 147.386 17.1761C147.765 16.9602 148.04 16.6686 148.21 16.3011C148.384 15.9299 148.472 15.5114 148.472 15.0455C148.472 14.5795 148.384 14.1629 148.21 13.7955C148.04 13.428 147.763 13.1402 147.381 12.9318C146.998 12.7197 146.491 12.6136 145.858 12.6136H143.381V23H141.972ZM151.946 23V14.2727H153.241V15.5909H153.332C153.491 15.1591 153.779 14.8087 154.196 14.5398C154.613 14.2708 155.082 14.1364 155.605 14.1364C155.704 14.1364 155.827 14.1383 155.974 14.142C156.122 14.1458 156.234 14.1515 156.31 14.1591V15.5227C156.264 15.5114 156.16 15.4943 155.997 15.4716C155.838 15.4451 155.67 15.4318 155.491 15.4318C155.067 15.4318 154.688 15.5208 154.355 15.6989C154.026 15.8731 153.764 16.1155 153.571 16.4261C153.382 16.733 153.287 17.0833 153.287 17.4773V23H151.946ZM157.899 23V14.2727H159.24V23H157.899ZM158.581 12.8182C158.32 12.8182 158.094 12.7292 157.905 12.5511C157.719 12.3731 157.626 12.1591 157.626 11.9091C157.626 11.6591 157.719 11.4451 157.905 11.267C158.094 11.089 158.32 11 158.581 11C158.842 11 159.066 11.089 159.251 11.267C159.441 11.4451 159.536 11.6591 159.536 11.9091C159.536 12.1591 159.441 12.3731 159.251 12.5511C159.066 12.7292 158.842 12.8182 158.581 12.8182ZM165.241 23.1818C164.423 23.1818 163.719 22.9886 163.128 22.6023C162.537 22.2159 162.082 21.6837 161.764 21.0057C161.446 20.3277 161.287 19.553 161.287 18.6818C161.287 17.7955 161.45 17.0133 161.776 16.3352C162.105 15.6534 162.563 15.1212 163.151 14.7386C163.741 14.3523 164.431 14.1591 165.219 14.1591C165.832 14.1591 166.385 14.2727 166.878 14.5C167.37 14.7273 167.774 15.0455 168.088 15.4545C168.402 15.8636 168.598 16.3409 168.673 16.8864H167.332C167.23 16.4886 167.003 16.1364 166.651 15.8295C166.302 15.5189 165.832 15.3636 165.241 15.3636C164.719 15.3636 164.26 15.5 163.866 15.7727C163.476 16.0417 163.171 16.4223 162.952 16.9148C162.736 17.4034 162.628 17.9773 162.628 18.6364C162.628 19.3106 162.734 19.8977 162.946 20.3977C163.162 20.8977 163.465 21.286 163.855 21.5625C164.249 21.839 164.711 21.9773 165.241 21.9773C165.59 21.9773 165.906 21.9167 166.19 21.7955C166.474 21.6742 166.715 21.5 166.912 21.2727C167.109 21.0455 167.249 20.7727 167.332 20.4545H168.673C168.598 20.9697 168.41 21.4337 168.111 21.8466C167.815 22.2557 167.423 22.5814 166.935 22.8239C166.45 23.0625 165.885 23.1818 165.241 23.1818ZM174.293 23.1818C173.452 23.1818 172.726 22.9962 172.116 22.625C171.51 22.25 171.043 21.7273 170.713 21.0568C170.387 20.3826 170.224 19.5985 170.224 18.7045C170.224 17.8106 170.387 17.0227 170.713 16.3409C171.043 15.6553 171.501 15.1212 172.088 14.7386C172.679 14.3523 173.368 14.1591 174.156 14.1591C174.611 14.1591 175.06 14.2348 175.503 14.3864C175.946 14.5379 176.349 14.7841 176.713 15.125C177.077 15.4621 177.366 15.9091 177.582 16.4659C177.798 17.0227 177.906 17.7083 177.906 18.5227V19.0909H171.179V17.9318H176.543C176.543 17.4394 176.444 17 176.247 16.6136C176.054 16.2273 175.777 15.9223 175.418 15.6989C175.062 15.4754 174.641 15.3636 174.156 15.3636C173.622 15.3636 173.16 15.4962 172.77 15.7614C172.384 16.0227 172.086 16.3636 171.878 16.7841C171.67 17.2045 171.565 17.6553 171.565 18.1364V18.9091C171.565 19.5682 171.679 20.1269 171.906 20.5852C172.137 21.0398 172.457 21.3864 172.866 21.625C173.276 21.8598 173.751 21.9773 174.293 21.9773C174.645 21.9773 174.963 21.928 175.247 21.8295C175.535 21.7273 175.783 21.5758 175.991 21.375C176.2 21.1705 176.361 20.9167 176.474 20.6136L177.77 20.9773C177.634 21.4167 177.404 21.803 177.082 22.1364C176.76 22.4659 176.363 22.7235 175.889 22.9091C175.416 23.0909 174.884 23.1818 174.293 23.1818Z" fill="white"/>
<path d="M297.773 205.614V204.364H306.5V205.614H302.841V216H301.432V205.614H297.773ZM310.773 216.182C309.985 216.182 309.294 215.994 308.699 215.619C308.108 215.244 307.646 214.72 307.312 214.045C306.983 213.371 306.818 212.583 306.818 211.682C306.818 210.773 306.983 209.979 307.312 209.301C307.646 208.623 308.108 208.097 308.699 207.722C309.294 207.347 309.985 207.159 310.773 207.159C311.561 207.159 312.25 207.347 312.841 207.722C313.436 208.097 313.898 208.623 314.227 209.301C314.561 209.979 314.727 210.773 314.727 211.682C314.727 212.583 314.561 213.371 314.227 214.045C313.898 214.72 313.436 215.244 312.841 215.619C312.25 215.994 311.561 216.182 310.773 216.182ZM310.773 214.977C311.371 214.977 311.864 214.824 312.25 214.517C312.636 214.21 312.922 213.807 313.108 213.307C313.294 212.807 313.386 212.265 313.386 211.682C313.386 211.098 313.294 210.555 313.108 210.051C312.922 209.547 312.636 209.14 312.25 208.83C311.864 208.519 311.371 208.364 310.773 208.364C310.174 208.364 309.682 208.519 309.295 208.83C308.909 209.14 308.623 209.547 308.438 210.051C308.252 210.555 308.159 211.098 308.159 211.682C308.159 212.265 308.252 212.807 308.438 213.307C308.623 213.807 308.909 214.21 309.295 214.517C309.682 214.824 310.174 214.977 310.773 214.977ZM318.024 212.818L318.001 211.159H318.274L322.092 207.273H323.751L319.683 211.386H319.57L318.024 212.818ZM316.774 216V204.364H318.115V216H316.774ZM322.32 216L318.911 211.682L319.865 210.75L324.024 216H322.32ZM328.777 216.182C327.936 216.182 327.211 215.996 326.601 215.625C325.995 215.25 325.527 214.727 325.197 214.057C324.872 213.383 324.709 212.598 324.709 211.705C324.709 210.811 324.872 210.023 325.197 209.341C325.527 208.655 325.985 208.121 326.572 207.739C327.163 207.352 327.853 207.159 328.641 207.159C329.095 207.159 329.544 207.235 329.987 207.386C330.43 207.538 330.834 207.784 331.197 208.125C331.561 208.462 331.851 208.909 332.067 209.466C332.283 210.023 332.391 210.708 332.391 211.523V212.091H325.663V210.932H331.027C331.027 210.439 330.929 210 330.732 209.614C330.538 209.227 330.262 208.922 329.902 208.699C329.546 208.475 329.125 208.364 328.641 208.364C328.107 208.364 327.644 208.496 327.254 208.761C326.868 209.023 326.571 209.364 326.362 209.784C326.154 210.205 326.05 210.655 326.05 211.136V211.909C326.05 212.568 326.163 213.127 326.391 213.585C326.622 214.04 326.942 214.386 327.351 214.625C327.76 214.86 328.235 214.977 328.777 214.977C329.129 214.977 329.447 214.928 329.732 214.83C330.019 214.727 330.268 214.576 330.476 214.375C330.684 214.17 330.845 213.917 330.959 213.614L332.254 213.977C332.118 214.417 331.889 214.803 331.567 215.136C331.245 215.466 330.847 215.723 330.374 215.909C329.9 216.091 329.368 216.182 328.777 216.182ZM335.771 210.75V216H334.43V207.273H335.726V208.636H335.839C336.044 208.193 336.355 207.837 336.771 207.568C337.188 207.295 337.726 207.159 338.385 207.159C338.976 207.159 339.493 207.28 339.936 207.523C340.379 207.761 340.724 208.125 340.97 208.614C341.216 209.098 341.339 209.712 341.339 210.455V216H339.999V210.545C339.999 209.86 339.821 209.326 339.464 208.943C339.108 208.557 338.62 208.364 337.999 208.364C337.571 208.364 337.188 208.456 336.851 208.642C336.518 208.828 336.254 209.098 336.061 209.455C335.868 209.811 335.771 210.242 335.771 210.75ZM354.835 207.273C354.767 206.697 354.491 206.25 354.006 205.932C353.521 205.614 352.926 205.455 352.222 205.455C351.706 205.455 351.256 205.538 350.869 205.705C350.487 205.871 350.188 206.1 349.972 206.392C349.759 206.684 349.653 207.015 349.653 207.386C349.653 207.697 349.727 207.964 349.875 208.188C350.027 208.407 350.22 208.591 350.455 208.739C350.689 208.883 350.936 209.002 351.193 209.097C351.451 209.187 351.688 209.261 351.903 209.318L353.085 209.636C353.388 209.716 353.725 209.826 354.097 209.966C354.472 210.106 354.83 210.297 355.17 210.54C355.515 210.778 355.799 211.085 356.023 211.46C356.246 211.835 356.358 212.295 356.358 212.841C356.358 213.47 356.193 214.038 355.864 214.545C355.538 215.053 355.061 215.456 354.432 215.756C353.807 216.055 353.047 216.205 352.153 216.205C351.32 216.205 350.598 216.07 349.989 215.801C349.383 215.532 348.905 215.157 348.557 214.676C348.212 214.195 348.017 213.636 347.972 213H349.426C349.464 213.439 349.612 213.803 349.869 214.091C350.131 214.375 350.46 214.587 350.858 214.727C351.259 214.864 351.691 214.932 352.153 214.932C352.691 214.932 353.174 214.845 353.602 214.67C354.03 214.492 354.369 214.246 354.619 213.932C354.869 213.614 354.994 213.242 354.994 212.818C354.994 212.432 354.886 212.117 354.67 211.875C354.455 211.633 354.17 211.436 353.818 211.284C353.466 211.133 353.085 211 352.676 210.886L351.244 210.477C350.335 210.216 349.616 209.843 349.085 209.358C348.555 208.873 348.29 208.239 348.29 207.455C348.29 206.803 348.466 206.235 348.818 205.75C349.174 205.261 349.652 204.883 350.25 204.614C350.852 204.341 351.525 204.205 352.267 204.205C353.017 204.205 353.684 204.339 354.267 204.608C354.85 204.873 355.313 205.237 355.653 205.699C355.998 206.161 356.18 206.686 356.199 207.273H354.835ZM363.993 212.432V207.273H365.334V216H363.993V214.523H363.902C363.697 214.966 363.379 215.343 362.947 215.653C362.516 215.96 361.97 216.114 361.311 216.114C360.766 216.114 360.281 215.994 359.857 215.756C359.432 215.513 359.099 215.15 358.857 214.665C358.614 214.176 358.493 213.561 358.493 212.818V207.273H359.834V212.727C359.834 213.364 360.012 213.871 360.368 214.25C360.728 214.629 361.186 214.818 361.743 214.818C362.076 214.818 362.415 214.733 362.76 214.562C363.108 214.392 363.4 214.131 363.635 213.778C363.874 213.426 363.993 212.977 363.993 212.432ZM367.79 219.273V207.273H369.085V208.659H369.244C369.343 208.508 369.479 208.314 369.653 208.08C369.831 207.841 370.085 207.629 370.415 207.443C370.748 207.254 371.199 207.159 371.767 207.159C372.502 207.159 373.15 207.343 373.71 207.71C374.271 208.078 374.708 208.598 375.023 209.273C375.337 209.947 375.494 210.742 375.494 211.659C375.494 212.583 375.337 213.384 375.023 214.062C374.708 214.737 374.273 215.259 373.716 215.631C373.159 215.998 372.517 216.182 371.79 216.182C371.229 216.182 370.78 216.089 370.443 215.903C370.106 215.714 369.847 215.5 369.665 215.261C369.483 215.019 369.343 214.818 369.244 214.659H369.131V219.273H367.79ZM369.108 211.636C369.108 212.295 369.205 212.877 369.398 213.381C369.591 213.881 369.873 214.273 370.244 214.557C370.616 214.837 371.07 214.977 371.608 214.977C372.169 214.977 372.636 214.83 373.011 214.534C373.39 214.235 373.674 213.833 373.864 213.33C374.057 212.822 374.153 212.258 374.153 211.636C374.153 211.023 374.059 210.47 373.869 209.977C373.684 209.481 373.402 209.089 373.023 208.801C372.648 208.509 372.176 208.364 371.608 208.364C371.063 208.364 370.604 208.502 370.233 208.778C369.862 209.051 369.581 209.434 369.392 209.926C369.203 210.415 369.108 210.985 369.108 211.636ZM377.54 219.273V207.273H378.835V208.659H378.994C379.093 208.508 379.229 208.314 379.403 208.08C379.581 207.841 379.835 207.629 380.165 207.443C380.498 207.254 380.949 207.159 381.517 207.159C382.252 207.159 382.9 207.343 383.46 207.71C384.021 208.078 384.458 208.598 384.773 209.273C385.087 209.947 385.244 210.742 385.244 211.659C385.244 212.583 385.087 213.384 384.773 214.062C384.458 214.737 384.023 215.259 383.466 215.631C382.909 215.998 382.267 216.182 381.54 216.182C380.979 216.182 380.53 216.089 380.193 215.903C379.856 215.714 379.597 215.5 379.415 215.261C379.233 215.019 379.093 214.818 378.994 214.659H378.881V219.273H377.54ZM378.858 211.636C378.858 212.295 378.955 212.877 379.148 213.381C379.341 213.881 379.623 214.273 379.994 214.557C380.366 214.837 380.82 214.977 381.358 214.977C381.919 214.977 382.386 214.83 382.761 214.534C383.14 214.235 383.424 213.833 383.614 213.33C383.807 212.822 383.903 212.258 383.903 211.636C383.903 211.023 383.809 210.47 383.619 209.977C383.434 209.481 383.152 209.089 382.773 208.801C382.398 208.509 381.926 208.364 381.358 208.364C380.813 208.364 380.354 208.502 379.983 208.778C379.612 209.051 379.331 209.434 379.142 209.926C378.953 210.415 378.858 210.985 378.858 211.636ZM388.631 204.364V216H387.29V204.364H388.631ZM391.95 219.273C391.723 219.273 391.52 219.254 391.342 219.216C391.164 219.182 391.041 219.148 390.973 219.114L391.314 217.932C391.64 218.015 391.928 218.045 392.178 218.023C392.428 218 392.649 217.888 392.842 217.688C393.039 217.491 393.219 217.17 393.382 216.727L393.632 216.045L390.405 207.273H391.859L394.268 214.227H394.359L396.768 207.273H398.223L394.518 217.273C394.352 217.723 394.145 218.097 393.899 218.392C393.653 218.691 393.367 218.913 393.041 219.057C392.719 219.201 392.356 219.273 391.95 219.273Z" fill="white"/>
</svg>
