<svg width="233" height="72" viewBox="0 0 233 72" fill="none" xmlns="http://www.w3.org/2000/svg">
<g clip-path="url(#clip0_10_344)">
<path d="M79.9766 35.1903C79.6972 28.2548 85.1121 22.4111 92.0741 22.1328C92.1171 22.1328 92.1385 22.1328 92.1815 22.1328H92.6972C99.122 22.1328 102.925 25.9002 104.043 30.3098L100.046 31.6369C99.2939 28.2334 96.1782 25.9002 92.6972 26.1357C88.5286 26.1357 84.36 29.1753 84.36 35.2759C84.36 41.3765 88.4427 44.3091 92.7402 44.3091C96.2212 44.3947 99.3154 42.1257 100.239 38.765L104.172 40.028C102.775 45.1439 98.0046 48.6117 92.6972 48.3548C85.7997 48.4832 80.1055 43.0034 79.9766 36.1321C79.9551 35.8111 79.9551 35.5114 79.9766 35.1903Z" fill="white"/>
<path d="M111.972 47.7571H107.824V22.0488H111.972V32.1095C113.196 30.6753 115.001 29.8833 116.892 29.9475C121.168 29.9475 123.21 33.0085 123.21 36.8188V47.7785H119.213V37.5465C119.471 35.7271 118.203 34.0574 116.377 33.7791C116.119 33.7577 115.882 33.7577 115.624 33.7791C113.626 33.7791 112.015 35.3846 112.015 37.3753C112.015 37.4823 112.015 37.5894 112.015 37.6964L111.972 47.7571Z" fill="white"/>
<path d="M132.471 37.8674L136.919 37.1825C137.929 37.054 138.187 36.5403 138.187 35.9195C138.187 34.4639 137.198 33.2866 134.899 33.2866C133.094 33.1368 131.504 34.4639 131.332 36.262V36.4547L127.55 35.6198C127.873 32.6231 130.601 29.9688 134.856 29.9688C140.206 29.9688 142.226 32.987 142.226 36.4975V45.0812C142.226 46.0016 142.291 46.9435 142.441 47.8639H138.659C138.53 47.1361 138.466 46.3869 138.487 45.6591C137.327 47.4572 135.286 48.4847 133.137 48.3776C130.15 48.6345 127.507 46.4083 127.249 43.4329C127.249 43.3473 127.249 43.2617 127.249 43.1761C127.206 39.9866 129.506 38.2742 132.471 37.8674ZM138.208 40.6288V39.8368L133.674 40.5218C132.406 40.5646 131.375 41.592 131.375 42.8764C131.396 44.1393 132.449 45.1454 133.717 45.124C133.739 45.124 133.739 45.124 133.76 45.124H133.953C136.124 45.3594 138.058 43.7754 138.272 41.6348V41.6134C138.272 41.271 138.251 40.9499 138.208 40.6288Z" fill="white"/>
<path d="M149.274 21.6835C150.757 21.6621 151.982 22.8394 152.003 24.3378C152.003 24.3378 152.003 24.3378 152.003 24.3592C152.003 25.8362 150.8 27.0563 149.296 27.0563C147.813 27.0563 146.588 25.8576 146.588 24.3592C146.588 22.8822 147.77 21.6835 149.253 21.6621V21.6835H149.274ZM147.254 47.8413V30.4813H151.401V47.7771L147.254 47.8413Z" fill="white"/>
<path d="M160.834 47.7556H156.709V30.4598H160.727V32.7502C161.801 30.9522 163.757 29.8819 165.862 29.9461C170.095 29.9461 172.18 33.0071 172.18 36.8173V47.7556H168.054V37.5237C168.054 35.4046 167.087 33.6707 164.487 33.6707C162.467 33.6921 160.834 35.3189 160.856 37.3311C160.856 37.4595 160.856 37.6093 160.856 37.7378L160.834 47.7556Z" fill="white"/>
<path d="M177.165 47.7571V22.0488H181.312V47.7571H177.165Z" fill="white"/>
<path d="M188.682 21.6836C190.165 21.6836 191.368 22.8609 191.39 24.3379C191.39 25.8149 190.208 27.0136 188.725 27.035C187.243 27.035 186.039 25.8577 186.018 24.3807V24.3593C186.018 22.8823 187.221 21.705 188.682 21.6836ZM186.662 47.8413V30.4813H190.767V47.7771L186.662 47.8413Z" fill="white"/>
<path d="M200.243 47.7556H196.095V30.4598H200.114V32.7502C201.188 30.9522 203.143 29.8819 205.249 29.9461C209.482 29.9461 211.566 33.0071 211.566 36.8173V47.7556H207.419V37.5237C207.677 35.7042 206.409 34.0346 204.583 33.7563C204.325 33.7349 204.067 33.7349 203.831 33.7563C201.833 33.7777 200.2 35.4046 200.2 37.3953C200.178 37.5451 200.178 37.695 200.2 37.8448L200.243 47.7556Z" fill="white"/>
<path d="M225.684 37.7606L232.968 47.8213H227.919L222.869 40.6932L220.742 42.9408V47.7571H216.638V22.0488H220.742V37.4609L227.403 30.4827H232.882L225.684 37.7606Z" fill="white"/>
<path d="M30.9851 15.091L48.8842 25.3229V45.8938L31.0495 56.1899L13.1719 45.9794V25.43L30.9851 15.091ZM30.9851 0L24.4314 3.7674L6.55371 14.1064L0 17.8738V53.5356L6.55371 57.303L24.4528 67.535L31.0065 71.3024L37.5603 67.535L55.3949 57.2388L61.9486 53.4714V17.7453L55.3949 13.9779L37.5173 3.7674L30.9636 0H30.9851Z" fill="white"/>
</g>
<defs>
<clipPath id="clip0_10_344">
<rect width="232.968" height="71.3024" fill="white"/>
</clipPath>
</defs>
</svg>
