<svg width="210" height="170" viewBox="0 0 210 170" fill="none" xmlns="http://www.w3.org/2000/svg">
<path d="M210 20.1651C202.277 23.5727 193.981 25.8752 185.26 26.9159C194.259 21.5539 200.991 13.1147 204.201 3.17296C195.746 8.1738 186.493 11.6939 176.844 13.5801C170.355 6.68066 161.76 2.10762 152.393 0.57094C143.027 -0.965741 133.413 0.619913 125.044 5.08172C116.675 9.54353 110.02 16.6319 106.111 25.2462C102.203 33.8606 101.259 43.5189 103.428 52.7219C86.2963 51.8653 69.5372 47.4313 54.238 39.7075C38.9389 31.9837 25.4416 21.1428 14.6221 7.88839C10.9227 14.2432 8.79547 21.6111 8.79547 29.4578C8.79135 36.5217 10.5382 43.4774 13.8811 49.7078C17.224 55.9382 22.0595 61.2505 27.9587 65.1736C21.1172 64.9568 14.4267 63.1159 8.44402 59.8042V60.3568C8.44333 70.2642 11.8848 79.8667 18.1846 87.535C24.4843 95.2033 33.2542 100.465 43.0063 102.427C36.6597 104.138 30.0058 104.39 23.5471 103.164C26.2985 111.689 31.6581 119.143 38.8755 124.484C46.0929 129.825 54.8068 132.785 63.7972 132.949C48.5354 144.879 29.6871 151.351 10.2845 151.322C6.84753 151.323 3.41346 151.123 0 150.724C19.6948 163.334 42.621 170.026 66.0354 170C145.296 170 188.626 104.629 188.626 47.9328C188.626 46.0908 188.58 44.2304 188.497 42.3884C196.925 36.3189 204.2 28.803 209.982 20.1927L210 20.1651V20.1651Z" fill="#00200B"/>
</svg>
