<svg width="210" height="120" viewBox="0 0 210 120" fill="none" xmlns="http://www.w3.org/2000/svg">
<path d="M118.453 60C118.453 93.1333 91.9406 120 59.22 120C51.4535 120.01 43.7609 118.467 36.5816 115.457C29.4023 112.448 22.8768 108.031 17.3777 102.46C11.8787 96.888 7.51366 90.2707 4.53198 82.9855C1.5503 75.7003 0.0103347 67.8898 0 60C0 26.8534 26.5125 7.25851e-05 59.22 7.25851e-05C66.9876 -0.0121929 74.6816 1.53012 81.8624 4.53893C89.0432 7.54773 95.5703 11.9641 101.071 17.5358C106.571 23.1075 110.937 29.7253 113.92 37.0114C116.902 44.2975 118.443 52.1091 118.453 60ZM183.422 60C183.422 91.2 170.166 116.48 153.812 116.48C137.458 116.48 124.202 91.1866 124.202 60C124.202 28.8 137.458 3.52007 153.812 3.52007C170.166 3.52007 183.422 28.8134 183.422 60ZM210 60C210 87.9466 205.341 110.6 199.579 110.6C193.83 110.6 189.171 87.9333 189.171 60C189.171 32.0534 193.83 9.40006 199.592 9.40006C205.341 9.40006 210 32.0534 210 60Z" fill="#00200B"/>
</svg>
