<svg width="210" height="157" viewBox="0 0 210 157" fill="none" xmlns="http://www.w3.org/2000/svg">
<path d="M177.773 13.021C164.386 7.00305 150.036 2.55501 135.03 0.0257303C134.897 0.000157703 134.758 0.0166376 134.634 0.0728912C134.511 0.129145 134.407 0.222389 134.339 0.33971C132.502 3.558 130.454 7.75311 129.019 11.0673C113.104 8.69711 96.9243 8.69711 81.0094 11.0673C79.4111 7.39431 77.6088 3.81288 75.6108 0.33971C75.543 0.220944 75.4406 0.125591 75.3171 0.0663743C75.1936 0.00715755 75.0549 -0.013107 74.9195 0.0082862C59.9225 2.53756 45.5729 6.98561 32.177 13.0123C32.0618 13.0604 31.9641 13.1426 31.897 13.2478C4.66782 53.1493 -2.79571 92.0653 0.87043 130.493C0.880632 130.587 0.90994 130.678 0.956571 130.761C1.0032 130.843 1.06618 130.915 1.14167 130.973C17.0346 142.506 34.7612 151.292 53.5789 156.963C53.7101 157.003 53.8504 157.003 53.9815 156.963C54.1126 156.922 54.2285 156.843 54.3139 156.736C58.3632 151.338 61.9515 145.611 65.0411 139.616C65.084 139.534 65.1087 139.444 65.1135 139.351C65.1184 139.259 65.1033 139.167 65.0693 139.081C65.0353 138.995 64.9831 138.917 64.9164 138.853C64.8496 138.789 64.7698 138.739 64.6823 138.709C59.03 136.587 53.5534 134.027 48.3028 131.051C48.2085 130.997 48.129 130.921 48.0714 130.829C48.0139 130.737 47.9802 130.633 47.9732 130.525C47.9663 130.417 47.9864 130.309 48.0317 130.21C48.077 130.112 48.1461 130.026 48.2328 129.961C49.3353 129.15 50.4377 128.304 51.4877 127.458C51.5822 127.382 51.6961 127.333 51.8166 127.318C51.9371 127.302 52.0595 127.321 52.1702 127.371C86.5305 142.756 123.743 142.756 157.701 127.371C157.812 127.318 157.936 127.297 158.058 127.311C158.18 127.325 158.296 127.373 158.392 127.449C159.442 128.304 160.536 129.15 161.647 129.961C161.735 130.025 161.805 130.109 161.852 130.207C161.898 130.304 161.92 130.412 161.915 130.52C161.91 130.628 161.878 130.733 161.822 130.826C161.766 130.918 161.688 130.996 161.595 131.051C156.362 134.051 150.92 136.589 145.206 138.7C145.119 138.732 145.039 138.782 144.972 138.847C144.905 138.912 144.853 138.99 144.819 139.077C144.785 139.164 144.77 139.256 144.775 139.349C144.78 139.442 144.805 139.533 144.848 139.616C147.997 145.607 151.602 151.311 155.566 156.728C155.648 156.839 155.763 156.922 155.895 156.966C156.026 157.009 156.168 157.011 156.301 156.972C175.151 151.317 192.906 142.527 208.817 130.973C208.895 130.918 208.96 130.848 209.008 130.767C209.056 130.686 209.087 130.595 209.097 130.502C213.472 86.0735 201.765 47.4715 178.044 13.2652C177.986 13.154 177.89 13.0674 177.773 13.021ZM70.1772 107.093C59.835 107.093 51.304 97.7692 51.304 86.3352C51.304 74.8924 59.6687 65.5776 70.1772 65.5776C80.7644 65.5776 89.2166 74.9709 89.0504 86.3352C89.0504 97.778 80.6856 107.093 70.1772 107.093ZM139.956 107.093C129.605 107.093 121.083 97.7692 121.083 86.3352C121.083 74.8924 129.439 65.5776 139.956 65.5776C150.544 65.5776 158.996 74.9709 158.83 86.3352C158.83 97.778 150.552 107.093 139.956 107.093Z" fill="#00200B"/>
</svg>
