<svg width="24" height="24" viewBox="0 0 24 24" fill="none" xmlns="http://www.w3.org/2000/svg">
<path fill-rule="evenodd" clip-rule="evenodd" d="M0 2.39342C0 1.62278 0.610846 0.998047 1.36436 0.998047H15.008C15.7615 0.998047 16.3724 1.62278 16.3724 2.39342C16.3724 3.16406 15.7615 3.78879 15.008 3.78879H2.72873V20.5333H19.1011V15.4169C19.1011 14.6462 19.7119 14.0215 20.4655 14.0215C21.219 14.0215 21.8298 14.6462 21.8298 15.4169V21.9286C21.8298 22.6993 21.219 23.324 20.4655 23.324H1.36436C0.610846 23.324 0 22.6993 0 21.9286V2.39342Z" fill="#00D54B"/>
<path fill-rule="evenodd" clip-rule="evenodd" d="M23.3715 3.35248C23.9302 3.87519 23.965 4.75798 23.4493 5.32425L12.4352 17.4175C12.181 17.6965 11.8256 17.8585 11.451 17.8661C11.0764 17.8737 10.7149 17.7262 10.45 17.4577L5.86077 12.8065C5.3231 12.2615 5.3231 11.378 5.86077 10.8331C6.39843 10.2882 7.27015 10.2882 7.80781 10.8331L11.3838 14.4574L21.426 3.43135C21.9417 2.86508 22.8128 2.82977 23.3715 3.35248Z" fill="#00D54B"/>
</svg>
