<svg width="40" height="33" viewBox="0 0 40 33" fill="none" xmlns="http://www.w3.org/2000/svg">
<path d="M40 3.85716C38.529 4.50897 36.9488 4.94939 35.2876 5.14845C37.0017 4.12281 38.2841 2.50856 38.8954 0.606921C37.285 1.56348 35.5225 2.23679 33.6845 2.59758C32.4485 1.27787 30.8113 0.403144 29.0273 0.109209C27.2432 -0.184726 25.412 0.118576 23.8179 0.972027C22.2239 1.82548 20.9562 3.18133 20.2117 4.82907C19.4672 6.47682 19.2875 8.32426 19.7005 10.0846C16.4374 9.92075 13.2452 9.07261 10.3311 7.59521C7.41693 6.11782 4.84602 4.04418 2.78517 1.50888C2.08051 2.72442 1.67533 4.13374 1.67533 5.63467C1.67454 6.98584 2.00728 8.31632 2.64402 9.50806C3.28076 10.6998 4.20182 11.7159 5.32546 12.4663C4.02233 12.4249 2.74795 12.0728 1.60839 11.4393V11.545C1.60825 13.4401 2.26378 15.2768 3.46372 16.7436C4.66367 18.2104 6.33413 19.2169 8.19167 19.5922C6.9828 19.9194 5.71538 19.9676 4.48516 19.7331C5.00924 21.3637 6.03012 22.7897 7.40486 23.8112C8.7796 24.8328 10.4394 25.3989 12.1519 25.4303C9.24484 27.7124 5.65469 28.9502 1.95895 28.9448C1.30429 28.945 0.650183 28.9068 0 28.8303C3.75139 31.2423 8.11828 32.5224 12.5782 32.5174C27.6755 32.5174 35.9288 20.0132 35.9288 9.16853C35.9288 8.8162 35.92 8.46035 35.9042 8.10802C37.5095 6.94705 38.8953 5.50941 39.9965 3.86245L40 3.85716V3.85716Z" fill="#00D54B"/>
</svg>
