<svg width="40" height="23" viewBox="0 0 40 23" fill="none" xmlns="http://www.w3.org/2000/svg">
<path d="M22.5625 11.4894C22.5625 17.834 17.5125 22.9787 11.28 22.9787C9.80066 22.9807 8.33541 22.6851 6.96793 22.1088C5.60044 21.5325 4.35749 20.6868 3.31005 19.6199C2.2626 18.553 1.43117 17.2859 0.863235 15.8908C0.295296 14.4958 0.00196852 13.0002 0 11.4894C0 5.14214 5.05 1.38993e-05 11.28 1.38993e-05C12.7596 -0.0023348 14.2251 0.293002 15.5928 0.869156C16.9606 1.44531 18.2039 2.291 19.2516 3.35791C20.2993 4.42483 21.1309 5.69208 21.699 7.08729C22.2671 8.4825 22.5605 9.97833 22.5625 11.4894V11.4894ZM34.9375 11.4894C34.9375 17.4638 32.4125 22.3047 29.2975 22.3047C26.1825 22.3047 23.6575 17.4613 23.6575 11.4894C23.6575 5.5149 26.1825 0.674056 29.2975 0.674056C32.4125 0.674056 34.9375 5.51745 34.9375 11.4894ZM40 11.4894C40 16.8408 39.1125 21.1787 38.015 21.1787C36.92 21.1787 36.0325 16.8383 36.0325 11.4894C36.0325 6.13788 36.92 1.80001 38.0175 1.80001C39.1125 1.80001 40 6.13788 40 11.4894Z" fill="#00D54B"/>
</svg>
