<svg width="40" height="30" viewBox="0 0 40 30" fill="none" xmlns="http://www.w3.org/2000/svg">
<path d="M33.8615 2.48818C31.3116 1.33821 28.5783 0.488236 25.7201 0.0049168C25.6946 3.01356e-05 25.6683 0.00317928 25.6447 0.0139288C25.6211 0.0246782 25.6014 0.0424962 25.5884 0.0649151C25.2384 0.679897 24.8484 1.48154 24.5751 2.11486C21.5437 1.66193 18.4618 1.66193 15.4304 2.11486C15.1259 1.41298 14.7826 0.728603 14.4021 0.0649151C14.3892 0.0422202 14.3696 0.0239992 14.3461 0.0126835C14.3226 0.00136773 14.2962 -0.00250462 14.2704 0.00158341C11.4138 0.484903 8.68055 1.33488 6.12896 2.48651C6.10701 2.49572 6.0884 2.51142 6.07563 2.53151C0.889109 10.1563 -0.532517 17.5927 0.165796 24.9359C0.167739 24.9538 0.173322 24.9712 0.182204 24.987C0.191086 25.0028 0.203082 25.0166 0.217461 25.0275C3.24469 27.2315 6.62117 28.9104 10.2055 29.994C10.2305 30.0017 10.2572 30.0017 10.2822 29.994C10.3072 29.9863 10.3292 29.9712 10.3455 29.9507C11.1168 28.9192 11.8003 27.8248 12.3888 26.6791C12.3969 26.6635 12.4017 26.6462 12.4026 26.6286C12.4035 26.611 12.4006 26.5933 12.3942 26.5769C12.3877 26.5605 12.3777 26.5456 12.365 26.5333C12.3523 26.5211 12.3371 26.5117 12.3204 26.5058C11.2438 26.1004 10.2006 25.6111 9.20053 25.0425C9.18256 25.0323 9.16742 25.0177 9.15646 25.0002C9.14551 24.9826 9.13908 24.9626 9.13776 24.942C9.13644 24.9213 9.14026 24.9006 9.14889 24.8818C9.15752 24.863 9.17069 24.8467 9.1872 24.8342C9.3972 24.6792 9.60719 24.5175 9.80718 24.3559C9.82519 24.3413 9.84687 24.3321 9.86982 24.3291C9.89277 24.3262 9.91609 24.3297 9.93718 24.3392C16.482 27.2791 23.5701 27.2791 30.0383 24.3392C30.0594 24.3291 30.083 24.3252 30.1062 24.3278C30.1295 24.3305 30.1516 24.3396 30.1699 24.3542C30.3699 24.5175 30.5783 24.6792 30.7899 24.8342C30.8066 24.8464 30.82 24.8626 30.8289 24.8812C30.8378 24.8998 30.8419 24.9204 30.8409 24.941C30.8399 24.9617 30.8338 24.9818 30.8232 24.9995C30.8125 25.0172 30.7977 25.032 30.7799 25.0425C29.7833 25.6158 28.7466 26.1008 27.6583 26.5041C27.6416 26.5102 27.6264 26.5198 27.6137 26.5322C27.6009 26.5446 27.591 26.5596 27.5846 26.5762C27.5781 26.5927 27.5752 26.6105 27.5762 26.6282C27.5771 26.646 27.5818 26.6634 27.59 26.6791C28.19 27.8241 28.8766 28.9141 29.6316 29.949C29.6473 29.9703 29.6692 29.9862 29.6942 29.9945C29.7193 30.0029 29.7463 30.0033 29.7716 29.9957C33.3621 28.9151 36.7441 27.2354 39.7747 25.0275C39.7894 25.0172 39.8018 25.0038 39.811 24.9883C39.8202 24.9728 39.826 24.9555 39.828 24.9375C40.6613 16.4478 38.4314 9.07132 33.9132 2.53484C33.9021 2.5136 33.8837 2.49704 33.8615 2.48818ZM13.3671 20.4643C11.3971 20.4643 9.77218 18.6827 9.77218 16.4978C9.77218 14.3112 11.3655 12.5312 13.3671 12.5312C15.3837 12.5312 16.9936 14.3262 16.962 16.4978C16.962 18.6844 15.3687 20.4643 13.3671 20.4643V20.4643ZM26.6584 20.4643C24.6868 20.4643 23.0635 18.6827 23.0635 16.4978C23.0635 14.3112 24.6551 12.5312 26.6584 12.5312C28.675 12.5312 30.2849 14.3262 30.2533 16.4978C30.2533 18.6844 28.6766 20.4643 26.6584 20.4643V20.4643Z" fill="#00D54B"/>
</svg>
