<svg width="606" height="229" viewBox="0 0 606 229" fill="none" xmlns="http://www.w3.org/2000/svg">
<path d="M10.8394 164V137.403H2.55305V134.452H22.2785V137.403H14.0326V164H10.8394ZM29.1747 164V141.768H32.3276V145.891H33.0956L31.9638 148.438C31.9907 146.174 32.5432 144.436 33.6211 143.224C34.6989 141.984 36.2484 141.364 38.2695 141.364C40.6139 141.364 42.4733 142.105 43.8476 143.587C45.2488 145.043 45.9495 147.01 45.9495 149.489V150.823H42.6754V149.731C42.6754 147.926 42.2307 146.538 41.3415 145.568C40.4522 144.571 39.1857 144.072 37.5419 144.072C35.952 144.072 34.6989 144.571 33.7827 145.568C32.8665 146.565 32.4084 147.953 32.4084 149.731V164H29.1747ZM59.1514 164.404C56.8069 164.404 54.9611 163.811 53.6137 162.626C52.2663 161.413 51.5926 159.783 51.5926 157.735C51.5926 155.714 52.2528 154.124 53.5733 152.965C54.8937 151.779 56.6722 151.187 58.9088 151.187H65.9825V148.842C65.9825 147.36 65.5514 146.215 64.6891 145.406C63.8267 144.598 62.6006 144.194 61.0107 144.194C59.6095 144.194 58.4373 144.504 57.4941 145.123C56.5779 145.743 56.0524 146.579 55.9177 147.629H52.684C52.9535 145.716 53.8427 144.194 55.3518 143.062C56.8878 141.93 58.8011 141.364 61.0916 141.364C63.5707 141.364 65.5379 142.038 66.9931 143.385C68.4482 144.706 69.1758 146.498 69.1758 148.761V164H66.0229V159.675H65.4975L66.1038 159.028C66.1038 160.672 65.4705 161.979 64.204 162.949C62.9375 163.919 61.2533 164.404 59.1514 164.404ZM59.9194 161.817C61.6979 161.817 63.1531 161.373 64.2848 160.483C65.4166 159.594 65.9825 158.435 65.9825 157.007V153.652H58.9493C57.6827 153.652 56.6722 154.003 55.9177 154.703C55.1632 155.404 54.7859 156.36 54.7859 157.573C54.7859 158.867 55.244 159.904 56.1602 160.685C57.0764 161.44 58.3295 161.817 59.9194 161.817ZM84.0349 164.404C81.8253 164.404 80.0333 163.663 78.6589 162.181C77.3116 160.699 76.6379 158.705 76.6379 156.199V149.61C76.6379 147.077 77.3116 145.069 78.6589 143.587C80.0063 142.105 81.7983 141.364 84.0349 141.364C85.8943 141.364 87.3899 141.876 88.5217 142.9C89.6804 143.924 90.2598 145.299 90.2598 147.023L89.4109 145.689H90.1789L90.1385 140.839V134.493H93.3318V164H90.1385V160.079H89.2897L90.2598 158.745C90.2598 160.497 89.6804 161.885 88.5217 162.909C87.3899 163.906 85.8943 164.404 84.0349 164.404ZM85.0455 161.615C86.6354 161.615 87.8749 161.13 88.7642 160.16C89.6804 159.163 90.1385 157.789 90.1385 156.037V149.731C90.1385 147.98 89.6804 146.619 88.7642 145.649C87.8749 144.652 86.6354 144.153 85.0455 144.153C83.4286 144.153 82.1621 144.638 81.2459 145.608C80.3297 146.579 79.8716 147.953 79.8716 149.731V156.037C79.8716 157.816 80.3297 159.19 81.2459 160.16C82.1621 161.13 83.4286 161.615 85.0455 161.615ZM109.363 164.404C107.639 164.404 106.143 164.067 104.876 163.394C103.61 162.693 102.626 161.709 101.926 160.443C101.225 159.176 100.875 157.708 100.875 156.037V149.731C100.875 148.034 101.225 146.565 101.926 145.325C102.626 144.059 103.61 143.089 104.876 142.415C106.143 141.715 107.639 141.364 109.363 141.364C111.088 141.364 112.583 141.715 113.85 142.415C115.116 143.089 116.1 144.059 116.801 145.325C117.501 146.565 117.852 148.034 117.852 149.731V153.652H104.028V156.037C104.028 157.843 104.486 159.244 105.402 160.241C106.345 161.211 107.665 161.696 109.363 161.696C110.791 161.696 111.95 161.413 112.839 160.847C113.756 160.281 114.335 159.459 114.577 158.381H117.771C117.474 160.241 116.572 161.709 115.063 162.787C113.553 163.865 111.654 164.404 109.363 164.404ZM114.699 151.51V149.731C114.699 147.926 114.241 146.538 113.324 145.568C112.408 144.571 111.088 144.072 109.363 144.072C107.665 144.072 106.345 144.571 105.402 145.568C104.486 146.538 104.028 147.926 104.028 149.731V151.146H115.022L114.699 151.51ZM126.122 164V141.768H129.275V145.891H130.043L128.911 148.438C128.938 146.174 129.491 144.436 130.568 143.224C131.646 141.984 133.196 141.364 135.217 141.364C137.561 141.364 139.421 142.105 140.795 143.587C142.196 145.043 142.897 147.01 142.897 149.489V150.823H139.623V149.731C139.623 147.926 139.178 146.538 138.289 145.568C137.4 144.571 136.133 144.072 134.489 144.072C132.899 144.072 131.646 144.571 130.73 145.568C129.814 146.565 129.356 147.953 129.356 149.731V164H126.122ZM4.97832 217V187.493H8.212V214.09H21.7935V217H4.97832ZM36.6526 217.364C34.928 217.364 33.4324 217.027 32.1659 216.353C30.8994 215.68 29.9158 214.709 29.2152 213.443C28.5145 212.176 28.1642 210.681 28.1642 208.956V202.812C28.1642 201.061 28.5145 199.565 29.2152 198.325C29.9158 197.059 30.8994 196.089 32.1659 195.415C33.4324 194.741 34.928 194.405 36.6526 194.405C38.3773 194.405 39.8728 194.741 41.1394 195.415C42.4059 196.089 43.3895 197.059 44.0901 198.325C44.7907 199.565 45.1411 201.047 45.1411 202.772V208.956C45.1411 210.681 44.7907 212.176 44.0901 213.443C43.3895 214.709 42.4059 215.68 41.1394 216.353C39.8728 217.027 38.3773 217.364 36.6526 217.364ZM36.6526 214.494C38.3234 214.494 39.6168 214.022 40.5331 213.079C41.4493 212.136 41.9074 210.762 41.9074 208.956V202.812C41.9074 201.007 41.4358 199.632 40.4926 198.689C39.5764 197.746 38.2964 197.275 36.6526 197.275C35.0088 197.275 33.7154 197.746 32.7722 198.689C31.856 199.632 31.3979 201.007 31.3979 202.812V208.956C31.3979 210.762 31.856 212.136 32.7722 213.079C33.7154 214.022 35.0088 214.494 36.6526 214.494ZM60.0811 217.364C58.6259 217.364 57.3459 217.121 56.2411 216.636C55.1362 216.151 54.2604 215.477 53.6137 214.615C52.9669 213.726 52.5762 212.702 52.4415 211.543H55.6347C55.8234 212.432 56.2949 213.147 57.0495 213.685C57.8309 214.224 58.8415 214.494 60.0811 214.494H62.0617C63.4899 214.494 64.5678 214.184 65.2954 213.564C66.0499 212.917 66.4272 212.069 66.4272 211.018C66.4272 210.021 66.1038 209.212 65.4571 208.592C64.8103 207.973 63.8806 207.568 62.668 207.38L59.3131 206.854C57.2112 206.504 55.6213 205.83 54.5434 204.833C53.4924 203.836 52.9669 202.435 52.9669 200.629C52.9669 198.662 53.6002 197.14 54.8667 196.062C56.1602 194.957 58.0196 194.405 60.4448 194.405H62.0213C64.1232 194.405 65.8074 194.903 67.0739 195.9C68.3674 196.897 69.1488 198.245 69.4183 199.942H66.1846C66.0229 199.134 65.5783 198.487 64.8507 198.002C64.1501 197.517 63.2069 197.275 62.0213 197.275H60.4448C59.0166 197.275 57.9522 197.571 57.2516 198.164C56.5509 198.73 56.2006 199.552 56.2006 200.629C56.2006 201.6 56.4971 202.341 57.0899 202.853C57.6827 203.338 58.5855 203.675 59.7981 203.863L63.1126 204.389C65.3223 204.739 66.9661 205.44 68.044 206.491C69.1219 207.515 69.6608 208.956 69.6608 210.816C69.6608 212.837 69.0141 214.44 67.7206 215.626C66.4272 216.784 64.5408 217.364 62.0617 217.364H60.0811ZM84.3179 217.364C82.8627 217.364 81.5827 217.121 80.4779 216.636C79.3731 216.151 78.4973 215.477 77.8505 214.615C77.2038 213.726 76.8131 212.702 76.6783 211.543H79.8716C80.0602 212.432 80.5318 213.147 81.2863 213.685C82.0678 214.224 83.0783 214.494 84.3179 214.494H86.2985C87.7267 214.494 88.8046 214.184 89.5322 213.564C90.2867 212.917 90.664 212.069 90.664 211.018C90.664 210.021 90.3406 209.212 89.6939 208.592C89.0472 207.973 88.1175 207.568 86.9048 207.38L83.5499 206.854C81.448 206.504 79.8581 205.83 78.7802 204.833C77.7293 203.836 77.2038 202.435 77.2038 200.629C77.2038 198.662 77.8371 197.14 79.1036 196.062C80.3971 194.957 82.2564 194.405 84.6817 194.405H86.2581C88.36 194.405 90.0442 194.903 91.3107 195.9C92.6042 196.897 93.3857 198.245 93.6552 199.942H90.4215C90.2598 199.134 89.8152 198.487 89.0876 198.002C88.3869 197.517 87.4438 197.275 86.2581 197.275H84.6817C83.2535 197.275 82.1891 197.571 81.4884 198.164C80.7878 198.73 80.4375 199.552 80.4375 200.629C80.4375 201.6 80.7339 202.341 81.3267 202.853C81.9196 203.338 82.8223 203.675 84.0349 203.863L87.3495 204.389C89.5592 204.739 91.2029 205.44 92.2808 206.491C93.3587 207.515 93.8977 208.956 93.8977 210.816C93.8977 212.837 93.2509 214.44 91.9575 215.626C90.664 216.784 88.7777 217.364 86.2985 217.364H84.3179ZM109.363 217.404C107.639 217.404 106.143 217.067 104.876 216.394C103.61 215.693 102.626 214.709 101.926 213.443C101.225 212.176 100.875 210.708 100.875 209.037V202.731C100.875 201.034 101.225 199.565 101.926 198.325C102.626 197.059 103.61 196.089 104.876 195.415C106.143 194.715 107.639 194.364 109.363 194.364C111.088 194.364 112.583 194.715 113.85 195.415C115.116 196.089 116.1 197.059 116.801 198.325C117.501 199.565 117.852 201.034 117.852 202.731V206.652H104.028V209.037C104.028 210.843 104.486 212.244 105.402 213.241C106.345 214.211 107.665 214.696 109.363 214.696C110.791 214.696 111.95 214.413 112.839 213.847C113.756 213.281 114.335 212.459 114.577 211.381H117.771C117.474 213.241 116.572 214.709 115.063 215.787C113.553 216.865 111.654 217.404 109.363 217.404ZM114.699 204.51V202.731C114.699 200.926 114.241 199.538 113.324 198.568C112.408 197.571 111.088 197.072 109.363 197.072C107.665 197.072 106.345 197.571 105.402 198.568C104.486 199.538 104.028 200.926 104.028 202.731V204.146H115.022L114.699 204.51ZM132.792 217.364C131.336 217.364 130.056 217.121 128.952 216.636C127.847 216.151 126.971 215.477 126.324 214.615C125.677 213.726 125.287 212.702 125.152 211.543H128.345C128.534 212.432 129.005 213.147 129.76 213.685C130.541 214.224 131.552 214.494 132.792 214.494H134.772C136.2 214.494 137.278 214.184 138.006 213.564C138.76 212.917 139.138 212.069 139.138 211.018C139.138 210.021 138.814 209.212 138.168 208.592C137.521 207.973 136.591 207.568 135.379 207.38L132.024 206.854C129.922 206.504 128.332 205.83 127.254 204.833C126.203 203.836 125.677 202.435 125.677 200.629C125.677 198.662 126.311 197.14 127.577 196.062C128.871 194.957 130.73 194.405 133.155 194.405H134.732C136.834 194.405 138.518 194.903 139.784 195.9C141.078 196.897 141.859 198.245 142.129 199.942H138.895C138.733 199.134 138.289 198.487 137.561 198.002C136.861 197.517 135.917 197.275 134.732 197.275H133.155C131.727 197.275 130.663 197.571 129.962 198.164C129.261 198.73 128.911 199.552 128.911 200.629C128.911 201.6 129.208 202.341 129.8 202.853C130.393 203.338 131.296 203.675 132.509 203.863L135.823 204.389C138.033 204.739 139.677 205.44 140.755 206.491C141.832 207.515 142.371 208.956 142.371 210.816C142.371 212.837 141.725 214.44 140.431 215.626C139.138 216.784 137.251 217.364 134.772 217.364H132.792Z" fill="white"/>
<circle cx="73.5" cy="54.5" r="47.6875" fill="black"/>
<path d="M73.5 0C103.601 0 128 24.399 128 54.5C128 84.601 103.601 109 73.5 109C43.399 109 19 84.601 19 54.5C19 24.399 43.399 0 73.5 0ZM72.9175 27.25H50.5998V44.9421H42.8438V51.2811H50.5998V57.9335H42.8438V64.2691H50.5998V81.75H72.9175C86.3382 81.75 96.5501 74.6139 100.478 64.2725H107.562V57.9369H102.031C102.167 56.8128 102.235 55.6615 102.235 54.4966V54.3399C102.235 53.3044 102.181 52.2825 102.075 51.2811H107.562V44.9455H100.61C96.7817 34.4508 86.4914 27.25 72.9175 27.25ZM93.6412 64.2725C90.2111 71.3405 82.8399 76.065 72.9175 76.065H56.84V64.2725H93.6412ZM95.5623 51.2811C95.7053 52.3268 95.7803 53.3998 95.7803 54.4966V54.6499C95.7803 55.7705 95.7019 56.8639 95.5521 57.9335H56.8366V51.2811H95.5657H95.5623ZM72.9209 32.9248C82.8876 32.9248 90.2826 37.7753 93.6922 44.9421H56.8366V32.9248H72.9141H72.9209Z" fill="white"/>
<path fill-rule="evenodd" clip-rule="evenodd" d="M277 108H232V101H277V108Z" fill="white"/>
<path fill-rule="evenodd" clip-rule="evenodd" d="M277 129H232V122H277V129Z" fill="white"/>
<path d="M367.277 164V134.493H375.402C378.043 134.493 380.117 135.18 381.627 136.554C383.136 137.901 383.89 139.761 383.89 142.132C383.89 143.48 383.607 144.665 383.041 145.689C382.502 146.686 381.721 147.468 380.697 148.034C379.7 148.573 378.487 148.829 377.059 148.802V148.236C378.595 148.236 379.915 148.546 381.02 149.165C382.152 149.758 383.028 150.634 383.648 151.793C384.267 152.925 384.577 154.272 384.577 155.835C384.577 157.506 384.227 158.961 383.526 160.2C382.826 161.413 381.829 162.356 380.535 163.03C379.242 163.677 377.692 164 375.887 164H367.277ZM370.389 161.09H375.604C377.409 161.09 378.824 160.618 379.848 159.675C380.899 158.705 381.424 157.398 381.424 155.754C381.424 154.056 380.899 152.696 379.848 151.672C378.824 150.621 377.409 150.095 375.604 150.095H370.389V161.09ZM370.389 147.306H375.402C377.045 147.306 378.339 146.861 379.282 145.972C380.225 145.083 380.697 143.87 380.697 142.334C380.697 140.798 380.225 139.599 379.282 138.737C378.366 137.848 377.072 137.403 375.402 137.403H370.389V147.306ZM399.639 164.404C397.132 164.404 395.125 163.65 393.616 162.141C392.134 160.632 391.393 158.584 391.393 155.997V141.768H394.586V155.997C394.586 157.748 395.031 159.123 395.92 160.12C396.836 161.09 398.076 161.575 399.639 161.575C401.228 161.575 402.481 161.09 403.398 160.12C404.314 159.123 404.772 157.748 404.772 155.997V141.768H407.965V155.997C407.965 158.584 407.211 160.632 405.702 162.141C404.193 163.65 402.172 164.404 399.639 164.404ZM419.227 171.276L422.501 162.585L414.255 141.768H417.812L423.067 155.633C423.283 156.172 423.485 156.778 423.673 157.452C423.889 158.099 424.051 158.637 424.158 159.069C424.293 158.637 424.455 158.085 424.643 157.411C424.832 156.738 425.021 156.131 425.209 155.592L430.141 141.768H433.576L422.622 171.276H419.227ZM473.481 164.404C471.621 164.404 470.112 163.906 468.954 162.909C467.822 161.885 467.256 160.497 467.256 158.745L468.226 160.079H467.377V164H464.184V134.493H467.377V140.839L467.337 145.689H468.105L467.256 147.023C467.256 145.299 467.835 143.924 468.994 142.9C470.153 141.876 471.648 141.364 473.481 141.364C475.717 141.364 477.509 142.105 478.857 143.587C480.204 145.069 480.878 147.077 480.878 149.61V156.199C480.878 158.705 480.204 160.699 478.857 162.181C477.509 163.663 475.717 164.404 473.481 164.404ZM472.47 161.615C474.087 161.615 475.354 161.13 476.27 160.16C477.186 159.19 477.644 157.816 477.644 156.037V149.731C477.644 147.953 477.186 146.579 476.27 145.608C475.354 144.638 474.087 144.153 472.47 144.153C470.907 144.153 469.668 144.652 468.752 145.649C467.835 146.619 467.377 147.98 467.377 149.731V156.037C467.377 157.789 467.835 159.163 468.752 160.16C469.668 161.13 470.907 161.615 472.47 161.615ZM494.888 164.404C492.544 164.404 490.698 163.811 489.351 162.626C488.003 161.413 487.329 159.783 487.329 157.735C487.329 155.714 487.99 154.124 489.31 152.965C490.631 151.779 492.409 151.187 494.646 151.187H501.719V148.842C501.719 147.36 501.288 146.215 500.426 145.406C499.564 144.598 498.337 144.194 496.748 144.194C495.346 144.194 494.174 144.504 493.231 145.123C492.315 145.743 491.789 146.579 491.655 147.629H488.421C488.69 145.716 489.58 144.194 491.089 143.062C492.625 141.93 494.538 141.364 496.828 141.364C499.308 141.364 501.275 142.038 502.73 143.385C504.185 144.706 504.913 146.498 504.913 148.761V164H501.76V159.675H501.234L501.841 159.028C501.841 160.672 501.207 161.979 499.941 162.949C498.674 163.919 496.99 164.404 494.888 164.404ZM495.656 161.817C497.435 161.817 498.89 161.373 500.022 160.483C501.153 159.594 501.719 158.435 501.719 157.007V153.652H494.686C493.42 153.652 492.409 154.003 491.655 154.703C490.9 155.404 490.523 156.36 490.523 157.573C490.523 158.867 490.981 159.904 491.897 160.685C492.813 161.44 494.066 161.817 495.656 161.817ZM520.984 164.404C519.26 164.404 517.751 164.067 516.457 163.394C515.164 162.72 514.153 161.763 513.426 160.524C512.725 159.257 512.375 157.762 512.375 156.037V149.731C512.375 148.007 512.725 146.525 513.426 145.285C514.153 144.019 515.164 143.048 516.457 142.375C517.751 141.701 519.26 141.364 520.984 141.364C523.517 141.364 525.552 142.051 527.088 143.426C528.624 144.8 529.419 146.673 529.473 149.044H526.28C526.226 147.508 525.727 146.323 524.784 145.487C523.868 144.652 522.601 144.234 520.984 144.234C519.341 144.234 518.034 144.719 517.064 145.689C516.093 146.632 515.608 147.98 515.608 149.731V156.037C515.608 157.762 516.093 159.109 517.064 160.079C518.034 161.049 519.341 161.534 520.984 161.534C522.601 161.534 523.868 161.117 524.784 160.281C525.727 159.419 526.226 158.233 526.28 156.724H529.473C529.419 159.096 528.624 160.968 527.088 162.343C525.552 163.717 523.517 164.404 520.984 164.404ZM537.016 164V134.493H540.209V151.106H544.777L551.365 141.768H555.084L547.606 152.359L555.205 164H551.446L544.817 153.895H540.209V164H537.016ZM590.623 164.404C588.494 164.404 586.823 163.811 585.611 162.626C584.398 161.44 583.792 159.81 583.792 157.735V152.844C583.792 151.281 584.183 149.987 584.964 148.963C585.772 147.939 586.904 147.252 588.359 146.902L588.076 146.781C587.187 145.595 586.54 144.504 586.136 143.507C585.759 142.509 585.57 141.512 585.57 140.515C585.57 139.249 585.867 138.131 586.46 137.16C587.052 136.19 587.874 135.436 588.925 134.897C590.003 134.358 591.256 134.088 592.684 134.088C594.193 134.088 595.5 134.385 596.605 134.978C597.737 135.544 598.599 136.339 599.192 137.363C599.812 138.387 600.122 139.599 600.122 141H596.888C596.888 140.165 596.713 139.451 596.363 138.858C596.012 138.238 595.527 137.753 594.908 137.403C594.288 137.053 593.547 136.877 592.684 136.877C591.903 136.877 591.216 137.039 590.623 137.363C590.03 137.659 589.572 138.09 589.249 138.656C588.925 139.195 588.764 139.842 588.764 140.596C588.764 141.297 588.925 142.065 589.249 142.9C589.572 143.709 590.03 144.504 590.623 145.285L597.656 154.946L600.688 149.448H604.002L599.516 157.492L604.285 164H600.769L597.899 160.16C595.905 162.989 593.479 164.404 590.623 164.404ZM590.825 161.534C591.849 161.534 592.819 161.211 593.735 160.564C594.652 159.891 595.447 158.934 596.12 157.694L589.895 149.246C588.952 149.354 588.225 149.718 587.713 150.338C587.228 150.957 586.985 151.793 586.985 152.844V157.735C586.985 158.893 587.322 159.823 587.996 160.524C588.696 161.197 589.639 161.534 590.825 161.534ZM367.277 217V187.493H375.402C378.043 187.493 380.117 188.18 381.627 189.554C383.136 190.901 383.89 192.761 383.89 195.132C383.89 196.48 383.607 197.665 383.041 198.689C382.502 199.686 381.721 200.468 380.697 201.034C379.7 201.573 378.487 201.829 377.059 201.802V201.236C378.595 201.236 379.915 201.546 381.02 202.165C382.152 202.758 383.028 203.634 383.648 204.793C384.267 205.925 384.577 207.272 384.577 208.835C384.577 210.506 384.227 211.961 383.526 213.2C382.826 214.413 381.829 215.356 380.535 216.03C379.242 216.677 377.692 217 375.887 217H367.277ZM370.389 214.09H375.604C377.409 214.09 378.824 213.618 379.848 212.675C380.899 211.705 381.424 210.398 381.424 208.754C381.424 207.056 380.899 205.696 379.848 204.672C378.824 203.621 377.409 203.095 375.604 203.095H370.389V214.09ZM370.389 200.306H375.402C377.045 200.306 378.339 199.861 379.282 198.972C380.225 198.083 380.697 196.87 380.697 195.334C380.697 193.798 380.225 192.599 379.282 191.737C378.366 190.848 377.072 190.403 375.402 190.403H370.389V200.306ZM399.639 217.404C397.132 217.404 395.125 216.65 393.616 215.141C392.134 213.632 391.393 211.584 391.393 208.997V194.768H394.586V208.997C394.586 210.748 395.031 212.123 395.92 213.12C396.836 214.09 398.076 214.575 399.639 214.575C401.228 214.575 402.481 214.09 403.398 213.12C404.314 212.123 404.772 210.748 404.772 208.997V194.768H407.965V208.997C407.965 211.584 407.211 213.632 405.702 215.141C404.193 216.65 402.172 217.404 399.639 217.404ZM416.438 217V194.768H419.591V198.891H420.359L419.227 201.438C419.254 199.174 419.806 197.436 420.884 196.224C421.962 194.984 423.512 194.364 425.533 194.364C427.877 194.364 429.736 195.105 431.111 196.587C432.512 198.043 433.213 200.01 433.213 202.489V203.823H429.939V202.731C429.939 200.926 429.494 199.538 428.605 198.568C427.715 197.571 426.449 197.072 424.805 197.072C423.215 197.072 421.962 197.571 421.046 198.568C420.13 199.565 419.672 200.953 419.672 202.731V217H416.438ZM439.947 217V194.768H443.14V198.891H443.949L443.06 200.064C443.06 198.285 443.599 196.897 444.676 195.9C445.781 194.876 447.277 194.364 449.163 194.364C451.373 194.364 453.138 195.065 454.458 196.466C455.779 197.84 456.439 199.713 456.439 202.085V217H453.246V202.448C453.246 200.751 452.801 199.444 451.912 198.528C451.023 197.611 449.81 197.153 448.274 197.153C446.684 197.153 445.431 197.638 444.515 198.608C443.599 199.579 443.14 200.953 443.14 202.731V217H439.947ZM495.737 222.659V217.364C493.204 217.175 491.21 216.38 489.755 214.979C488.327 213.551 487.585 211.678 487.532 209.36H490.765C490.765 210.789 491.196 211.961 492.059 212.877C492.948 213.766 494.174 214.305 495.737 214.494V203.257L494.646 202.933C492.625 202.341 491.062 201.33 489.957 199.902C488.879 198.447 488.34 196.749 488.34 194.809C488.34 192.653 489 190.888 490.321 189.514C491.668 188.139 493.473 187.358 495.737 187.169V181.834H497.92V187.129C500.156 187.317 501.948 188.112 503.296 189.514C504.643 190.915 505.317 192.72 505.317 194.93H502.124C502.124 193.556 501.746 192.437 500.992 191.575C500.264 190.713 499.24 190.187 497.92 189.999V200.589L499.415 201.074C501.409 201.694 502.959 202.745 504.064 204.227C505.169 205.709 505.721 207.447 505.721 209.441C505.721 211.651 505.007 213.47 503.579 214.898C502.177 216.326 500.291 217.148 497.92 217.364V222.659H495.737ZM497.92 214.494C499.375 214.278 500.493 213.753 501.275 212.917C502.083 212.055 502.487 210.923 502.487 209.522C502.487 208.229 502.137 207.11 501.436 206.167C500.736 205.197 499.752 204.523 498.486 204.146L497.92 203.984V214.494ZM495.737 201.074V189.999C494.417 190.187 493.393 190.672 492.665 191.454C491.937 192.235 491.574 193.259 491.574 194.526C491.574 195.927 491.991 197.126 492.827 198.123C493.689 199.12 494.902 199.767 496.465 200.064L495.737 201.074ZM513.426 217V187.493H516.659V214.09H530.241V217H513.426ZM542.917 217L535.197 187.493H538.511L543.807 208.107C544.13 209.455 544.413 210.708 544.655 211.867C544.898 213.025 545.073 213.901 545.181 214.494C545.289 213.901 545.45 213.025 545.666 211.867C545.908 210.708 546.191 209.455 546.515 208.107L551.769 187.493H555.003L547.242 217H542.917ZM561.131 217V187.493H570.024C571.776 187.493 573.298 187.843 574.592 188.544C575.912 189.244 576.923 190.228 577.623 191.494C578.351 192.734 578.715 194.203 578.715 195.9C578.715 197.921 578.176 199.646 577.098 201.074C576.02 202.502 574.551 203.459 572.692 203.944L579.078 217H575.279L569.377 204.267H564.325V217H561.131ZM564.325 201.357H570.024C571.668 201.357 572.975 200.859 573.945 199.861C574.942 198.864 575.44 197.531 575.44 195.86C575.44 194.189 574.942 192.869 573.945 191.899C572.975 190.901 571.668 190.403 570.024 190.403H564.325V201.357ZM592.401 217.404C589.653 217.404 587.484 216.623 585.894 215.06C584.331 213.497 583.549 211.355 583.549 208.633H586.743C586.743 210.492 587.241 211.947 588.238 212.998C589.235 214.022 590.623 214.534 592.401 214.534C594.18 214.534 595.568 214.022 596.565 212.998C597.589 211.947 598.101 210.492 598.101 208.633V190.443H590.865V187.493H601.294V208.633C601.294 211.355 600.499 213.497 598.909 215.06C597.319 216.623 595.15 217.404 592.401 217.404Z" fill="white"/>
<path fill-rule="evenodd" clip-rule="evenodd" d="M480.494 26.2438C481.902 26.8471 482.641 28.414 482.216 29.8947C481.83 31.2409 481.571 33.7802 481.692 36.7145C481.812 39.6263 482.292 42.5431 483.14 44.672C484.05 46.9582 484.936 47.3441 485.334 47.3799C485.971 47.4372 487.899 47.0141 491.383 43.1019C492.031 42.3746 492.985 42.0041 493.95 42.1055C494.915 42.2068 495.773 42.7677 496.257 43.614C501.449 52.6786 503.436 60.5541 500.908 66.4552C498.245 72.6702 491.434 75 483.403 75C478.767 75 474.042 74.486 470.391 72.5126C468.507 71.494 466.863 70.0622 465.709 68.097C464.556 66.1352 464 63.8277 464 61.2259C464 49.578 469.931 39.2701 475.637 29.3541C475.989 28.7431 476.339 28.1336 476.688 27.5253C477.452 26.1904 479.086 25.6404 480.494 26.2438ZM476.034 41.1343C472.527 47.8926 470.053 54.3191 470.053 61.2259C470.053 62.9413 470.413 64.133 470.918 64.9917C471.42 65.8471 472.174 66.5571 473.254 67.1407C475.531 68.3716 478.994 68.9033 483.403 68.9033C490.759 68.9033 494.183 66.7631 495.35 64.0396C496.47 61.4262 496.189 56.9664 492.875 50.161C490.19 52.4488 487.496 53.6954 484.796 53.4525C480.844 53.0969 478.659 49.7956 477.522 46.9421C476.815 45.1656 476.336 43.1576 476.034 41.1343Z" fill="white"/>
<path fill-rule="evenodd" clip-rule="evenodd" d="M485.298 0.596641L483.5 3.01564L481.702 0.596872C482.769 -0.198872 484.231 -0.198966 485.298 0.596641ZM483.5 6.85557C482.896 7.3487 482.162 7.96151 481.33 8.68101C478.911 10.7746 475.694 13.7526 472.487 17.2971C465.914 24.5618 460.023 33.5142 460.023 41.8132C460.023 50.8511 462.34 57.5995 466.247 62.0498C470.108 66.4464 475.842 68.9687 483.5 68.9687C491.158 68.9687 496.892 66.4454 500.752 62.0474C504.66 57.5957 506.977 50.8458 506.977 41.8079C506.977 33.509 501.086 24.5579 494.513 17.2946C491.306 13.7509 488.089 10.7735 485.67 8.6804C484.839 7.96116 484.104 7.34855 483.5 6.85557ZM498.976 13.2444C505.647 20.6158 513 31.0608 513 41.8079C513 51.816 510.433 60.1543 505.276 66.0293C500.072 71.9581 492.562 75 483.5 75C474.439 75 466.929 71.9597 461.724 66.0323C456.567 60.1585 454 51.8213 454 41.8132C454 31.0663 461.353 20.6199 468.024 13.2473C471.439 9.47308 474.844 6.32281 477.392 4.11782C478.668 3.01345 479.734 2.14148 480.487 1.54199C480.863 1.24214 481.161 1.01016 481.368 0.851034C481.471 0.771464 481.552 0.710085 481.608 0.667524L481.674 0.617861L481.692 0.603754L481.7 0.597912C481.701 0.597355 481.702 0.596872 483.5 3.01564C485.298 0.596641 485.299 0.597123 485.3 0.597681L485.307 0.603522L485.326 0.617626L485.392 0.667277C485.448 0.709829 485.529 0.771193 485.632 0.850744C485.839 1.00983 486.137 1.24176 486.513 1.54153C487.265 2.14087 488.332 3.01264 489.608 4.11677C492.155 6.32126 495.561 9.47088 498.976 13.2444Z" fill="white"/>
<path fill-rule="evenodd" clip-rule="evenodd" d="M523.194 74L524.758 79.8482L442.565 101.896L441 96.048L471.196 87.9481L441 79.8482L442.565 74L482.879 84.8141L523.194 74ZM500.51 92.6766C500.942 91.0617 502.6 90.1033 504.213 90.536L524.758 96.048C526.371 96.4807 527.328 98.1406 526.896 99.7555C526.464 101.37 524.806 102.329 523.194 101.896L502.648 96.3841C501.035 95.9514 500.078 94.2915 500.51 92.6766Z" fill="white"/>
</svg>
