<svg width="1920" height="491" viewBox="0 0 1920 491" fill="none" xmlns="http://www.w3.org/2000/svg">
<path fill-rule="evenodd" clip-rule="evenodd" d="M515.545 5.17636e-07C516.414 -0.000604455 517.126 0.52915 517.154 1.19646L528.164 266.078L536.82 235.476C536.969 234.949 537.546 234.557 538.245 234.508C538.944 234.458 539.604 234.763 539.875 235.261L551.295 256.205C551.308 256.228 551.319 256.252 551.33 256.275C551.337 256.292 551.344 256.308 551.351 256.325L560.667 279.977L571.064 224.061C571.07 224.028 571.078 223.995 571.088 223.963C571.097 223.934 571.106 223.905 571.118 223.877L582.538 194.989C582.743 194.469 583.367 194.113 584.075 194.113C584.783 194.112 585.408 194.467 585.615 194.988L596.22 221.664L605.739 213.807C606.138 213.478 606.739 213.341 607.308 213.451C607.876 213.56 608.322 213.899 608.471 214.334L619.668 246.908L628.907 249.087L639.73 231.651C640.042 231.148 640.754 230.867 641.469 230.967C642.183 231.067 642.722 231.521 642.784 232.077L652.491 318.65L662.428 217C662.481 216.456 662.991 216.004 663.684 215.886L674.177 214.099L685.329 185.005C685.373 184.889 685.439 184.779 685.525 184.678L696.945 171.248C697.325 170.801 698.036 170.592 698.707 170.73C699.379 170.868 699.859 171.322 699.897 171.855L710.065 311.347L719.545 226.516C719.617 225.874 720.318 225.382 721.157 225.385C721.995 225.389 722.689 225.887 722.751 226.53L732.569 328.031L742.383 226.834C742.389 226.777 742.4 226.72 742.416 226.663L753.841 186.352C753.989 185.828 754.56 185.438 755.254 185.385C755.948 185.332 756.607 185.629 756.886 186.12L768.306 206.195C768.324 206.227 768.34 206.259 768.355 206.291L779.775 232.031C779.81 232.11 779.834 232.191 779.848 232.274L789.985 293.343L799.517 254.788C799.669 254.175 800.391 253.745 801.202 253.785C802.012 253.826 802.656 254.324 802.703 254.947L812.65 387.581L822.332 278.256C822.383 277.687 822.934 277.218 823.666 277.122C824.398 277.026 825.12 277.327 825.414 277.851L836.834 298.215C836.906 298.343 836.949 298.479 836.962 298.619L847.002 409.906L856.6 329.176C856.625 328.967 856.719 328.766 856.873 328.593L868.293 315.715C868.64 315.323 869.247 315.119 869.856 315.188C870.466 315.257 870.97 315.587 871.156 316.039L882.576 343.843C882.595 343.89 882.611 343.937 882.623 343.986L891.889 381.817L902.285 291.172C902.353 290.576 902.966 290.104 903.741 290.05C904.516 289.995 905.23 290.375 905.437 290.951L916.857 322.673C916.888 322.759 916.907 322.848 916.913 322.937L926.373 461.083L936.545 228.804C936.572 228.176 937.21 227.663 938.026 227.614C938.843 227.565 939.577 227.995 939.732 228.612L951.151 274.201C951.156 274.22 951.16 274.239 951.164 274.259C951.171 274.293 951.175 274.328 951.178 274.363L962.574 425.166L971.282 436.141L982.236 350.541C982.239 350.524 982.241 350.506 982.244 350.489L993.664 288.475C993.772 287.893 994.397 287.449 995.161 287.414C995.924 287.379 996.614 287.762 996.811 288.33L1008.1 320.897L1017.72 326.853L1028.11 314.547L1039.49 296.034C1039.78 295.556 1040.44 295.274 1041.12 295.334C1041.81 295.393 1042.37 295.781 1042.51 296.298L1052.52 331.535L1062.23 303.666C1062.42 303.136 1063.04 302.763 1063.75 302.75C1064.46 302.737 1065.1 303.088 1065.32 303.611L1076.32 330.17L1085.46 329.128L1096.51 306.811L1107.91 269.747C1108.04 269.327 1108.44 268.99 1108.97 268.856C1109.5 268.722 1110.09 268.811 1110.52 269.091L1120.37 275.554L1130.87 259.386L1130.88 259.375L1142.21 242.351L1153.59 204.828C1153.67 204.575 1153.84 204.348 1154.1 204.177L1165.52 196.519C1165.97 196.219 1166.59 196.132 1167.15 196.294C1167.7 196.456 1168.1 196.839 1168.17 197.291L1178.3 257.546L1187.84 219.192C1187.98 218.621 1188.62 218.202 1189.38 218.189C1190.14 218.175 1190.8 218.569 1190.98 219.135L1200.27 248.832L1210.66 178.385C1210.67 178.347 1210.68 178.31 1210.69 178.273C1210.69 178.25 1210.7 178.226 1210.71 178.203L1222.13 145.538C1222.33 144.969 1223.02 144.587 1223.79 144.625C1224.55 144.663 1225.17 145.111 1225.28 145.695L1236.5 210.287L1246.43 209.811C1247.22 209.773 1247.93 210.186 1248.1 210.783L1257.91 245.528L1267.79 209.112C1267.93 208.598 1268.48 208.207 1269.16 208.139C1269.83 208.07 1270.49 208.338 1270.8 208.807L1282.22 226.18C1282.31 226.309 1282.36 226.45 1282.38 226.595L1292.26 292.198L1302.04 231.488C1302.12 230.966 1302.62 230.542 1303.29 230.431C1303.96 230.32 1304.65 230.547 1305 230.995L1314.16 242.527L1324.88 191.855C1325.01 191.246 1325.71 190.803 1326.51 190.817C1327.31 190.831 1327.98 191.298 1328.07 191.911L1337.7 255.837L1347.71 170.816C1347.79 170.204 1348.43 169.725 1349.23 169.693C1350.03 169.66 1350.74 170.083 1350.89 170.686L1362.31 214.82C1362.33 214.866 1362.33 214.912 1362.34 214.958L1372.2 305.169L1381.98 220.481C1382.03 220.083 1382.32 219.726 1382.77 219.524C1383.22 219.322 1383.76 219.299 1384.24 219.462L1395.6 223.376L1406.95 226.44C1407.5 226.586 1407.89 226.942 1408 227.376L1416.93 263.518L1427.66 104.227C1427.7 103.581 1428.39 103.07 1429.23 103.055C1430.07 103.04 1430.78 103.526 1430.87 104.17L1442.29 193.568C1442.29 193.578 1442.29 193.588 1442.29 193.599L1452.19 298.366L1461.92 205.61C1461.99 204.967 1462.69 204.472 1463.53 204.474C1464.37 204.475 1465.07 204.973 1465.13 205.617L1474.73 303.233L1484.77 168.01C1484.81 167.365 1485.5 166.857 1486.34 166.845C1487.18 166.832 1487.89 167.319 1487.97 167.962L1498.92 255.3L1507.83 243.732C1508.16 243.297 1508.81 243.062 1509.46 243.14C1510.11 243.217 1510.63 243.59 1510.78 244.083L1522.1 281.761L1530.94 288.613L1541.88 232.143L1541.89 232.141L1553.3 172.491L1553.3 172.445L1564.72 91.7978C1564.81 91.1598 1565.52 90.681 1566.36 90.6959C1567.19 90.7107 1567.87 91.2141 1567.93 91.8547L1578.93 227.697L1587.69 212.273C1587.87 211.949 1588.23 211.701 1588.66 211.592C1589.1 211.482 1589.58 211.522 1589.97 211.701L1599.12 215.823L1610.4 62.4305C1610.45 61.7762 1611.15 61.2644 1612.01 61.2643C1612.86 61.2641 1613.56 61.7756 1613.61 62.4299L1625.02 216.222L1635.36 236.362L1644.73 227.859L1656.09 157.234C1656.19 156.641 1656.82 156.186 1657.6 156.152C1658.38 156.118 1659.07 156.515 1659.25 157.095L1670.67 193.402C1670.68 193.426 1670.69 193.449 1670.69 193.473L1682.05 241.823L1692.24 253.162L1702.3 246.23C1702.85 245.855 1703.65 245.809 1704.26 246.117L1713.64 250.854L1724.63 203.318C1724.76 202.743 1725.4 202.318 1726.16 202.299C1726.92 202.28 1727.6 202.673 1727.78 203.24L1739.1 238.747L1748.2 246.325L1758.92 212.315C1759.09 211.775 1759.71 211.389 1760.43 211.371C1761.15 211.353 1761.8 211.708 1762.02 212.239L1773.44 240.413C1773.47 240.492 1773.49 240.572 1773.5 240.653L1784.91 325.193L1796.3 370.028L1806.5 386.06L1816.06 376.661L1827.42 300.96C1827.51 300.367 1828.14 299.908 1828.92 299.868C1829.69 299.829 1830.39 300.221 1830.58 300.8L1841.02 332.693L1850.46 319.801C1850.54 319.703 1850.63 319.613 1850.73 319.534L1862.15 310.742C1862.58 310.409 1863.22 310.294 1863.8 310.445C1864.38 310.596 1864.8 310.987 1864.88 311.454L1874.77 369.129L1884.54 316.779C1884.65 316.19 1885.29 315.745 1886.06 315.72C1886.83 315.694 1887.52 316.095 1887.7 316.674L1899.12 354.299C1899.13 354.346 1899.14 354.394 1899.15 354.443L1910.56 433.111L1921.96 471.025C1922.16 471.69 1921.62 472.354 1920.75 472.508C1919.89 472.661 1919.02 472.247 1918.82 471.582L1907.4 433.598C1907.39 433.551 1907.38 433.504 1907.37 433.457L1895.96 354.789L1886.51 323.64L1876.3 378.373C1876.18 378.985 1875.5 379.437 1874.7 379.434C1873.89 379.43 1873.22 378.972 1873.11 378.36L1862.12 314.264L1853.16 321.16L1841.85 336.606C1841.53 337.047 1840.89 337.292 1840.23 337.225C1839.58 337.158 1839.05 336.792 1838.89 336.301L1829.61 307.965L1819.2 377.289C1819.17 377.515 1819.05 377.729 1818.87 377.908L1807.45 389.139C1807.11 389.474 1806.57 389.651 1806.01 389.607C1805.46 389.563 1804.98 389.303 1804.74 388.921L1793.32 370.967C1793.25 370.87 1793.21 370.767 1793.18 370.661L1781.74 325.612C1781.73 325.576 1781.73 325.539 1781.72 325.503L1770.32 241.031L1760.68 217.242L1750.62 249.15C1750.48 249.593 1750.04 249.941 1749.46 250.056C1748.89 250.17 1748.28 250.033 1747.88 249.698L1736.45 240.19C1736.27 240.036 1736.14 239.849 1736.07 239.645L1726.47 209.515L1716.38 253.134C1716.28 253.543 1715.93 253.888 1715.43 254.053C1714.94 254.217 1714.36 254.179 1713.91 253.95L1703.53 248.705L1693.02 255.939C1692.68 256.176 1692.22 256.288 1691.76 256.246C1691.3 256.204 1690.89 256.013 1690.63 255.721L1679.21 243.007C1679.08 242.862 1678.99 242.698 1678.95 242.525L1667.54 193.949L1658.2 164.274L1647.86 228.528C1647.82 228.767 1647.7 228.992 1647.49 229.175L1636.07 239.536C1635.71 239.868 1635.14 240.028 1634.58 239.957C1634.03 239.886 1633.56 239.595 1633.35 239.191L1621.93 216.945C1621.87 216.822 1621.83 216.693 1621.82 216.561L1612.01 84.3187L1602.19 217.982C1602.16 218.412 1601.83 218.798 1601.34 219.002C1600.85 219.205 1600.25 219.196 1599.77 218.978L1589.91 214.537L1579.22 233.382C1578.92 233.905 1578.19 234.204 1577.46 234.105C1576.73 234.005 1576.18 233.534 1576.14 232.964L1565.88 106.439L1556.49 172.758C1556.49 172.773 1556.49 172.789 1556.49 172.804L1545.07 232.503L1545.07 232.505L1533.65 291.417C1533.56 291.88 1533.14 292.264 1532.56 292.41C1531.98 292.555 1531.34 292.437 1530.91 292.105L1519.49 283.252C1519.28 283.089 1519.14 282.884 1519.07 282.66L1508.55 247.649L1499.18 259.821C1498.82 260.282 1498.12 260.515 1497.44 260.398C1496.76 260.282 1496.26 259.843 1496.19 259.31L1486.78 184.249L1476.56 321.989C1476.51 322.639 1475.81 323.149 1474.97 323.155C1474.12 323.16 1473.41 322.661 1473.35 322.012L1463.47 221.585L1453.71 314.644C1453.64 315.288 1452.94 315.783 1452.1 315.78C1451.26 315.778 1450.56 315.278 1450.5 314.634L1439.09 193.809L1439.08 193.778L1429.76 120.828L1419.45 273.914C1419.41 274.538 1418.76 275.04 1417.95 275.083C1417.14 275.125 1416.41 274.695 1416.26 274.08L1405.01 228.536L1394.47 225.691C1394.43 225.679 1394.38 225.666 1394.34 225.652L1384.98 222.428L1373.76 319.643C1373.68 320.281 1372.99 320.771 1372.15 320.769C1371.32 320.768 1370.62 320.276 1370.55 319.637L1359.14 215.234L1349.91 179.572L1339.5 267.996C1339.42 268.627 1338.74 269.112 1337.92 269.12C1337.09 269.128 1336.39 268.656 1336.3 268.027L1326.2 201.02L1316.64 246.22C1316.53 246.73 1316.02 247.135 1315.36 247.234C1314.7 247.333 1314.03 247.106 1313.68 246.665L1304.66 235.309L1293.81 302.749C1293.71 303.37 1293.02 303.836 1292.21 303.833C1291.39 303.831 1290.71 303.361 1290.61 302.739L1279.22 227.097L1270 213.074L1259.52 251.72C1259.37 252.291 1258.71 252.701 1257.95 252.703C1257.19 252.706 1256.54 252.3 1256.37 251.73L1245.25 212.344L1235.2 212.826C1234.36 212.867 1233.62 212.399 1233.51 211.756L1223.15 152.142L1213.85 178.755L1202.44 256.081C1202.35 256.677 1201.72 257.138 1200.94 257.175C1200.16 257.212 1199.46 256.814 1199.28 256.23L1189.6 225.287L1179.58 265.599C1179.43 266.196 1178.74 266.621 1177.95 266.603C1177.16 266.584 1176.5 266.128 1176.4 265.526L1165.37 199.901L1156.61 205.777L1145.3 243.059C1145.27 243.157 1145.22 243.252 1145.16 243.342L1133.75 260.489L1133.74 260.5L1122.33 278.072C1122.11 278.413 1121.7 278.656 1121.21 278.732C1120.73 278.807 1120.22 278.707 1119.85 278.461L1110.43 272.285L1099.61 307.458C1099.6 307.511 1099.58 307.563 1099.55 307.614L1088.13 330.684C1087.92 331.102 1087.44 331.401 1086.86 331.467L1075.44 332.769C1074.66 332.858 1073.91 332.499 1073.67 331.921L1063.92 308.381L1053.92 337.09C1053.72 337.641 1053.07 338.019 1052.32 338.006C1051.58 337.992 1050.95 337.591 1050.79 337.034L1040.38 300.374L1030.98 315.678C1030.95 315.728 1030.91 315.776 1030.87 315.823L1019.45 329.348C1019.2 329.641 1018.81 329.84 1018.36 329.895C1017.91 329.951 1017.45 329.857 1017.09 329.638L1005.67 322.568C1005.4 322.403 1005.21 322.178 1005.12 321.924L995.74 294.846L985.434 350.809L974.013 440.061C973.945 440.59 973.445 441.027 972.77 441.145C972.096 441.264 971.398 441.037 971.038 440.584L959.619 426.189C959.481 426.016 959.402 425.82 959.386 425.618L947.972 274.588L939.278 239.881L928.334 489.806C928.305 490.467 927.603 490.994 926.742 491C925.881 491.006 925.166 490.49 925.121 489.829L913.71 323.202L904.708 298.197L894.069 390.966C893.999 391.581 893.349 392.062 892.546 392.092C891.744 392.123 891.035 391.693 890.886 391.087L879.479 344.516L869.085 319.211L859.766 329.72L848.384 425.452C848.308 426.094 847.603 426.583 846.765 426.576C845.926 426.569 845.236 426.068 845.178 425.425L833.771 299L825.09 283.52L814.122 407.371C814.064 408.022 813.358 408.527 812.509 408.523C811.66 408.52 810.96 408.01 810.911 407.358L800.242 265.099L791.252 301.46C791.105 302.057 790.414 302.483 789.623 302.465C788.832 302.446 788.177 301.989 788.077 301.386L776.677 232.711L765.332 207.138L755.927 190.606L745.583 227.104L734.171 344.776C734.109 345.421 733.409 345.92 732.567 345.92C731.725 345.92 731.026 345.421 730.963 344.776L721.032 242.102L711.33 328.921C711.258 329.567 710.548 330.06 709.704 330.051C708.86 330.041 708.169 329.532 708.122 328.884L696.959 175.75L688.348 185.878L676.995 215.497C676.829 215.929 676.372 216.257 675.8 216.355L665.546 218.101L654.205 334.119C654.142 334.761 653.448 335.259 652.61 335.262C651.772 335.266 651.071 334.774 650.999 334.133L640.087 236.818L631.213 251.114C630.87 251.667 630.052 251.943 629.289 251.763L617.869 249.069C617.338 248.943 616.928 248.616 616.786 248.203L606.106 217.132L596.674 224.918C596.282 225.241 595.695 225.379 595.135 225.28C594.575 225.18 594.126 224.859 593.958 224.436L584.081 199.59L574.231 224.505L562.824 285.852C562.717 286.426 562.106 286.866 561.353 286.91C560.601 286.954 559.91 286.59 559.692 286.036L548.296 257.102L538.88 239.832L528.543 276.374C528.371 276.984 527.634 277.399 526.825 277.342C526.017 277.286 525.39 276.775 525.364 276.151L515.593 41.0824L505.734 292.562C505.717 293.001 505.398 293.4 504.895 293.61C504.393 293.82 503.784 293.809 503.294 293.582L491.874 288.276C491.438 288.073 491.153 287.724 491.105 287.334L480.852 203.257L471.449 247.333C471.371 247.698 471.085 248.017 470.669 248.202C470.253 248.388 469.75 248.421 469.3 248.292L459.735 245.552L448.612 301.843C448.502 302.402 447.912 302.832 447.18 302.888C446.448 302.943 445.76 302.61 445.509 302.079L434.972 279.712L425.749 287.129L414.363 440.093C414.314 440.747 413.61 441.258 412.758 441.259C411.906 441.259 411.201 440.749 411.151 440.095L399.796 291.93L389.424 289.367C388.87 289.23 388.455 288.873 388.34 288.435L377.742 248.02L368.643 259.838L357.254 361.808C357.202 362.282 356.8 362.69 356.222 362.858C355.644 363.027 354.992 362.926 354.544 362.598L343.124 354.256C342.862 354.065 342.691 353.811 342.64 353.536L331.236 292.547L319.869 266.995L319.865 266.987L310.241 245.871L300.109 277.687C299.925 278.266 299.229 278.661 298.454 278.627C297.679 278.592 297.047 278.137 296.951 277.545L287.59 219.766L277.317 335.569C277.263 336.187 276.62 336.679 275.815 336.718C275.011 336.758 274.292 336.333 274.135 335.725L263.123 293.105L253.584 296.719C253.159 296.88 252.662 296.888 252.228 296.742C251.793 296.596 251.465 296.31 251.33 295.96L241.983 271.635L231.619 326.352C231.502 326.974 230.797 327.428 229.98 327.41C229.163 327.391 228.495 326.905 228.425 326.279L217.678 229.556L208.761 250.508L197.355 312.324C197.257 312.858 196.719 313.282 196.026 313.37L184.606 314.828C184.235 314.876 183.854 314.822 183.529 314.675L172.109 309.53C171.676 309.334 171.386 308.994 171.326 308.611L161.404 245.014L151.677 299.732C151.569 300.336 150.905 300.79 150.112 300.801C149.319 300.812 148.634 300.377 148.498 299.776L138.29 254.561L128.792 280.484C128.601 281.003 127.994 281.368 127.293 281.384C126.591 281.401 125.956 281.065 125.725 280.556L114.305 255.397C114.289 255.362 114.275 255.326 114.263 255.289L102.942 220.487L94.2523 213.59L83.1598 304.138C83.0814 304.778 82.3785 305.265 81.5425 305.258C80.7065 305.252 80.0163 304.755 79.9544 304.114L70.1084 202.173L60.317 299.808C60.2588 300.389 59.6813 300.859 58.9306 300.938C58.1799 301.017 57.4595 300.682 57.2012 300.135L46.8227 278.146L37.1812 288.49C36.9116 288.779 36.493 288.965 36.0324 289C35.5717 289.035 35.1137 288.916 34.7755 288.673L25.317 281.883L14.5826 312.848C14.4416 313.255 14.041 313.578 13.5194 313.707C12.9978 313.835 12.427 313.751 12.0045 313.483L0.584641 306.241C-0.100464 305.806 -0.197462 305.027 0.367989 304.501C0.93344 303.974 1.94721 303.9 2.63232 304.334L12.1192 310.351L22.8994 279.254C23.0449 278.834 23.4665 278.504 24.0099 278.384C24.5532 278.264 25.1386 278.372 25.5517 278.669L35.6327 285.906L45.9858 274.799C46.3334 274.426 46.9213 274.231 47.5127 274.294C48.1042 274.356 48.6019 274.666 48.8055 275.097L57.6826 293.905L68.5349 185.692C68.5995 185.047 69.2996 184.55 70.1408 184.551C70.9821 184.552 71.6803 185.051 71.7426 185.695L81.748 289.287L91.377 210.686C91.4358 210.206 91.853 209.795 92.4454 209.636C93.0378 209.476 93.6972 209.595 94.1339 209.942L105.554 219.005C105.75 219.161 105.89 219.355 105.959 219.565L117.366 254.636L127.08 276.035L137.115 248.648C137.319 248.093 137.996 247.719 138.746 247.749C139.496 247.779 140.12 248.203 140.248 248.772L149.894 291.497L159.915 235.13C160.024 234.514 160.712 234.057 161.522 234.062C162.331 234.067 163.009 234.533 163.105 235.15L174.425 307.708L184.654 312.317L194.336 311.08L205.595 250.054C205.609 249.982 205.63 249.912 205.659 249.843L217.079 223.011C217.317 222.453 218.033 222.1 218.793 222.168C219.553 222.236 220.145 222.705 220.21 223.291L230.444 315.394L239.856 265.7C239.965 265.126 240.579 264.687 241.333 264.645C242.087 264.604 242.776 264.971 242.99 265.528L253.875 293.853L263.582 290.176C264.03 290.006 264.556 290.006 265.005 290.176C265.453 290.346 265.773 290.667 265.87 291.044L274.932 326.115L285.517 206.787C285.573 206.152 286.249 205.654 287.077 205.636C287.905 205.618 288.616 206.087 288.718 206.719L299.063 270.573L308.405 241.237C308.574 240.705 309.178 240.323 309.889 240.296C310.6 240.27 311.25 240.606 311.485 241.122L322.909 266.187L334.329 291.857C334.361 291.93 334.385 292.005 334.399 292.081L345.745 352.76L354.335 359.036L365.469 259.346C365.49 259.161 365.565 258.982 365.688 258.822L377.107 243.991C377.446 243.551 378.104 243.316 378.76 243.402C379.417 243.487 379.937 243.875 380.068 244.376L391.307 287.236L401.829 289.836C402.461 289.992 402.903 290.431 402.942 290.94L412.733 418.694L422.571 286.534C422.593 286.241 422.75 285.963 423.014 285.751L434.439 276.564C434.824 276.254 435.389 276.12 435.934 276.208C436.478 276.296 436.925 276.595 437.114 276.997L446.381 296.667L456.851 243.677C456.924 243.309 457.209 242.986 457.626 242.797C458.044 242.608 458.55 242.574 459.003 242.704L468.591 245.45L479.7 193.377C479.83 192.764 480.534 192.321 481.342 192.342C482.151 192.363 482.813 192.843 482.888 193.462L494.232 286.483L502.602 290.372L513.939 1.1987C513.965 0.531351 514.676 0.00060538 515.545 5.17636e-07Z" fill="#00D54B"/>
</svg>
